<?xml version="1.0" standalone="no"?>
<!DOCTYPE svg PUBLIC "-//W3C//DTD SVG 20010904//EN"
 "http://www.w3.org/TR/2001/REC-SVG-20010904/DTD/svg10.dtd">
<svg version="1.0" xmlns="http://www.w3.org/2000/svg"
 width="92.000000pt" height="92.000000pt" viewBox="0 0 92.000000 92.000000"
 preserveAspectRatio="xMidYMid meet">

<g transform="translate(0.000000,92.000000) scale(0.100000,-0.100000)"
fill="#000000" stroke="none">
<path d="M374 731 c-80 -20 -127 -88 -145 -208 -11 -68 -45 -135 -75 -147 -19
-7 -18 -28 4 -48 9 -9 23 -24 31 -33 7 -9 19 -14 27 -11 11 4 12 1 4 -13 -5
-11 -25 -25 -45 -31 -51 -17 -81 -59 -99 -139 -9 -39 -16 -77 -16 -86 0 -14
37 -15 343 -13 l342 3 -3 33 c-4 59 -47 135 -89 160 -30 17 -34 22 -17 22 29
0 35 38 18 103 -12 45 -11 53 1 60 20 11 22 254 3 279 -35 45 -211 88 -284 69z
m237 -118 c4 -5 10 -18 13 -29 5 -17 2 -23 -19 -28 -14 -4 -23 -11 -20 -17 4
-5 15 -7 26 -4 17 6 19 1 19 -60 0 -95 -16 -147 -56 -186 -30 -29 -41 -34 -79
-32 -25 1 -59 9 -76 17 -46 23 -47 20 -9 -19 37 -38 127 -76 116 -50 -3 8 -1
15 4 15 12 0 17 -10 25 -52 6 -31 3 -41 -19 -62 -55 -56 -190 -16 -256 76 -36
49 -37 58 -7 58 13 0 28 5 35 10 8 7 9 7 3 -1 -14 -17 -2 -37 19 -32 32 8 42
30 42 84 -1 32 7 70 19 97 13 28 18 54 14 69 -9 38 20 65 61 57 26 -5 34 -2
43 15 6 11 9 33 6 48 l-5 28 11 -28 c8 -21 8 -35 0 -53 -9 -21 -8 -24 10 -24
20 0 21 3 14 65 l-6 64 32 -9 c18 -5 36 -13 40 -17z"/>
<path d="M442 488 c6 -18 25 -20 31 -3 5 10 0 15 -14 15 -12 0 -19 -5 -17 -12z"/>
<path d="M574 487 c-3 -9 -1 -25 6 -36 8 -16 8 -27 -1 -43 -11 -21 -11 -22 4
-10 9 8 15 26 15 40 -1 15 0 33 3 41 6 19 -20 26 -27 8z"/>
<path d="M490 370 c0 -8 24 -20 41 -20 6 0 8 4 5 9 -8 12 -46 21 -46 11z"/>
<path d="M362 158 c16 -16 34 -28 41 -28 6 0 3 6 -8 12 -11 6 -29 18 -40 27
-12 9 -8 4 7 -11z"/>
<path d="M525 150 c-3 -11 -16 -22 -28 -25 -12 -2 -31 -6 -42 -8 -12 -3 -7 -5
13 -6 31 -1 72 27 72 49 0 17 -8 11 -15 -10z"/>
</g>
</svg>
