<?xml version="1.0" standalone="no"?>
<!DOCTYPE svg PUBLIC "-//W3C//DTD SVG 20010904//EN"
 "http://www.w3.org/TR/2001/REC-SVG-20010904/DTD/svg10.dtd">
<svg version="1.0" xmlns="http://www.w3.org/2000/svg"
 width="92.000000pt" height="92.000000pt" viewBox="0 0 92.000000 92.000000"
 preserveAspectRatio="xMidYMid meet">

<g transform="translate(0.000000,92.000000) scale(0.100000,-0.100000)"
fill="#000000" stroke="none">
<path d="M373 770 c-48 -11 -77 -34 -112 -85 -62 -92 -59 -177 9 -280 l39 -59
-43 -17 c-60 -23 -133 -75 -150 -108 -8 -15 -22 -34 -31 -41 -26 -22 -55 -86
-62 -137 -8 -63 3 -51 23 23 8 32 26 75 39 95 l24 37 44 -22 c43 -20 44 -22
30 -44 -8 -13 -12 -31 -10 -40 4 -13 5 -12 6 4 4 82 113 38 127 -51 l6 -45
158 0 157 0 -5 48 c-3 38 0 50 16 65 26 24 53 19 69 -13 7 -14 13 -19 13 -11
0 8 -8 23 -17 33 -15 17 -15 20 -3 28 33 21 -8 8 -48 -15 -29 -17 -44 -21 -46
-12 -2 7 -12 34 -21 60 -16 46 -16 49 1 70 10 12 20 23 20 25 3 5 87 -48 111
-71 19 -17 21 -23 10 -36 -8 -10 -8 -13 0 -8 16 10 51 -37 63 -87 6 -22 15
-50 20 -61 7 -17 9 -17 9 -3 1 29 -30 112 -50 134 -10 11 -19 25 -19 30 0 14
-46 56 -98 90 -29 18 -42 33 -39 43 17 54 35 88 54 104 28 22 40 80 24 114
-10 22 -9 29 8 47 70 75 5 166 -117 166 -29 0 -65 6 -80 14 -37 18 -91 25
-129 16z m216 -162 l30 -32 -25 -29 c-13 -16 -24 -33 -24 -38 0 -5 -9 -9 -20
-9 -11 0 -20 6 -20 14 0 8 -12 24 -27 36 -26 20 -26 21 -10 55 22 46 55 47 96
3z m51 -58 c0 -5 -4 -10 -10 -10 -5 0 -10 5 -10 10 0 6 5 10 10 10 6 0 10 -4
10 -10z m41 -27 c11 -29 5 -69 -14 -92 -10 -12 -13 -9 -18 15 l-7 29 -1 -32
c-1 -43 -25 -43 -46 -2 -21 39 -16 83 9 88 11 2 26 -5 33 -15 12 -16 13 -16
13 9 0 35 18 35 31 0z m-157 -18 c12 -49 -24 -95 -75 -95 -31 0 -69 38 -69 69
1 54 131 77 144 26z m-192 -22 c11 -9 18 -11 18 -5 0 24 16 11 25 -20 7 -23
22 -39 47 -53 l37 -20 28 21 c15 11 34 35 42 52 19 42 34 40 50 -5 7 -21 22
-45 32 -53 18 -15 18 -16 -4 -72 -13 -31 -29 -64 -36 -72 -20 -24 -105 -21
-150 6 l-36 21 29 -31 c16 -17 48 -37 70 -45 46 -15 58 -44 31 -71 -37 -37
-136 -2 -185 65 -19 26 -28 49 -24 58 4 9 11 38 16 65 9 48 9 50 -21 73 -23
18 -31 33 -31 57 0 18 3 36 7 39 11 12 36 8 55 -10z m-38 -214 c-14 -15 -16
-30 -10 -83 l6 -65 -82 38 c-45 21 -84 43 -86 49 -5 17 39 53 113 88 68 33 70
34 73 13 2 -11 -4 -29 -14 -40z"/>
<path d="M458 493 c7 -3 16 -2 19 1 4 3 -2 6 -13 5 -11 0 -14 -3 -6 -6z"/>
<path d="M290 470 c0 -6 4 -9 9 -5 5 3 12 -5 14 -17 5 -22 5 -21 4 1 -2 24
-27 44 -27 21z"/>
<path d="M548 402 c-21 -2 -38 -7 -38 -12 0 -5 -8 -10 -17 -13 -15 -3 -12 -6
10 -17 21 -10 30 -11 39 -2 7 7 22 12 35 12 13 0 23 3 23 8 -1 19 -18 27 -52
24z"/>
<path d="M195 40 c9 -17 18 -30 21 -30 2 0 -2 13 -11 30 -9 17 -18 30 -21 30
-2 0 2 -13 11 -30z"/>
</g>
</svg>
