<?xml version="1.0" standalone="no"?>
<!DOCTYPE svg PUBLIC "-//W3C//DTD SVG 20010904//EN"
 "http://www.w3.org/TR/2001/REC-SVG-20010904/DTD/svg10.dtd">
<svg version="1.0" xmlns="http://www.w3.org/2000/svg"
 width="92.000000pt" height="92.000000pt" viewBox="0 0 92.000000 92.000000"
 preserveAspectRatio="xMidYMid meet">

<g transform="translate(0.000000,92.000000) scale(0.100000,-0.100000)"
fill="#000000" stroke="none">
<path d="M453 808 c-13 -6 -23 -15 -23 -21 0 -5 -13 -7 -30 -3 -40 8 -78 -8
-91 -38 -7 -14 -21 -26 -33 -28 -12 -2 -28 -17 -37 -35 -9 -18 -27 -41 -39
-51 -27 -22 -32 -75 -8 -98 12 -12 13 -22 6 -42 -11 -32 13 -102 36 -102 7 0
19 -7 26 -15 7 -8 21 -15 32 -15 16 0 19 -6 16 -41 l-3 -41 -78 -23 c-113 -32
-131 -52 -157 -177 l-17 -78 350 0 350 0 -6 34 c-3 19 -17 59 -32 90 -24 50
-32 58 -91 87 l-65 32 22 20 c27 25 59 94 58 127 0 16 -6 6 -19 -30 -37 -108
-111 -144 -203 -99 l-42 20 34 -28 c18 -15 52 -35 75 -44 45 -18 57 -46 31
-73 -9 -9 -29 -16 -44 -16 -74 0 -186 102 -162 148 6 11 11 42 11 67 0 39 -5
51 -26 67 -20 16 -24 28 -22 57 3 41 28 53 58 26 12 -11 20 -13 25 -6 3 6 14
11 23 11 10 0 25 9 35 20 9 11 12 20 7 20 -6 0 -13 -7 -16 -15 -4 -8 -15 -15
-25 -15 -16 0 -19 7 -19 43 0 85 45 105 155 72 28 -9 66 -14 85 -13 32 3 35 0
38 -24 3 -23 0 -27 -14 -21 -12 4 -24 -3 -40 -23 -21 -26 -26 -27 -44 -16 -19
11 -19 11 -8 -7 6 -10 17 -17 24 -14 6 2 14 -6 17 -19 3 -13 8 -33 12 -45 5
-16 1 -24 -14 -33 -18 -9 -27 -7 -50 10 -37 26 -77 26 -91 0 -14 -27 -7 -37
32 -43 18 -3 44 -8 57 -13 18 -5 22 -4 16 5 -5 9 1 12 24 9 35 -3 51 13 44 42
-4 14 2 19 24 22 27 3 28 5 28 56 -1 28 2 52 6 52 9 0 49 77 49 94 0 8 -16 33
-35 56 -19 23 -35 48 -35 56 0 18 -38 37 -62 30 -13 -3 -27 2 -37 14 -20 24
-60 32 -88 18z m190 -347 c-3 -14 -13 -21 -29 -21 -27 0 -28 3 -14 31 9 15 7
21 -5 25 -22 9 -19 24 5 24 11 0 20 6 21 13 0 6 7 -2 14 -19 8 -17 11 -41 8
-53z"/>
<path d="M442 561 c-10 -6 -7 -10 11 -15 14 -3 32 -9 41 -12 10 -4 16 -1 16 9
0 8 -10 17 -22 21 -29 7 -30 7 -46 -3z"/>
<path d="M440 491 c0 -15 23 -26 28 -13 2 7 9 9 14 6 7 -4 8 -2 4 4 -9 14 -46
16 -46 3z"/>
<path d="M290 470 c0 -6 4 -9 9 -5 5 3 12 -5 14 -17 5 -22 5 -21 4 1 -2 24
-27 44 -27 21z"/>
<path d="M400 451 c0 -10 19 -25 25 -20 1 2 -3 10 -11 17 -8 7 -14 8 -14 3z"/>
</g>
</svg>
