<?xml version="1.0" standalone="no"?>
<!DOCTYPE svg PUBLIC "-//W3C//DTD SVG 20010904//EN"
 "http://www.w3.org/TR/2001/REC-SVG-20010904/DTD/svg10.dtd">
<svg version="1.0" xmlns="http://www.w3.org/2000/svg"
 width="92.000000pt" height="92.000000pt" viewBox="0 0 92.000000 92.000000"
 preserveAspectRatio="xMidYMid meet">

<g transform="translate(0.000000,92.000000) scale(0.100000,-0.100000)"
fill="#000000" stroke="none">
<path d="M355 756 c-29 -13 -100 -90 -123 -133 -31 -57 -8 -158 54 -239 28
-36 33 -94 9 -94 -9 0 -18 -7 -21 -15 -3 -8 -33 -22 -65 -31 -82 -23 -112 -54
-138 -141 -32 -106 -24 -111 10 -6 27 86 32 94 67 112 21 11 54 22 74 26 30 6
37 4 41 -12 3 -13 5 -12 6 7 2 36 18 59 30 42 12 -19 21 8 21 65 0 36 -5 49
-26 65 -20 16 -24 28 -22 57 2 28 8 37 24 39 11 2 27 -4 34 -13 21 -25 30 -17
30 25 0 53 40 96 71 77 18 -10 23 -9 32 5 11 16 13 16 37 -6 14 -14 53 -36 88
-49 l62 -26 0 30 c0 18 5 29 14 29 47 0 63 79 21 106 -14 9 -25 24 -25 34 0
29 -21 37 -105 44 -44 4 -100 9 -125 11 -27 3 -57 0 -75 -9z"/>
<path d="M444 545 c-19 -14 -19 -14 1 -15 30 0 65 11 65 21 0 14 -44 10 -66
-6z"/>
<path d="M442 488 c6 -18 25 -20 31 -3 5 10 0 15 -14 15 -12 0 -19 -5 -17 -12z"/>
<path d="M574 487 c-3 -9 -1 -25 6 -36 8 -16 8 -27 -1 -43 -11 -21 -11 -22 4
-10 9 8 15 26 15 40 -1 15 0 33 3 41 6 19 -20 26 -27 8z"/>
<path d="M296 473 c7 -4 14 -17 17 -28 5 -16 5 -15 4 4 -1 14 -9 26 -17 28
-10 3 -11 2 -4 -4z"/>
<path d="M641 434 c0 -11 3 -14 6 -6 3 7 2 16 -1 19 -3 4 -6 -2 -5 -13z"/>
<path d="M612 347 c-12 -29 -22 -57 -22 -64 0 -21 -43 -43 -85 -43 -22 0 -58
9 -80 21 l-40 21 29 -30 c16 -17 49 -38 73 -46 40 -14 43 -14 41 1 -2 9 3 18
10 20 6 3 12 0 12 -7 0 -6 5 -8 10 -5 6 4 35 -5 64 -18 57 -27 81 -58 112
-151 13 -39 13 -40 7 -6 -11 66 -46 123 -95 157 -26 17 -53 33 -60 35 -10 4
-10 9 -2 19 12 16 57 139 52 144 -1 2 -13 -20 -26 -48z"/>
<path d="M474 376 c-14 -36 41 -61 66 -31 10 12 8 16 -15 25 -15 6 -32 13 -37
16 -4 3 -11 -2 -14 -10z"/>
<path d="M270 196 c0 -11 30 -66 36 -66 2 0 -3 15 -12 33 -19 36 -24 44 -24
33z"/>
<path d="M362 158 c16 -16 34 -28 41 -28 6 0 3 6 -8 12 -11 6 -29 18 -40 27
-12 9 -8 4 7 -11z"/>
<path d="M530 162 c0 -21 -32 -42 -62 -42 -17 0 -28 -3 -25 -7 4 -3 2 -12 -4
-20 -9 -10 -8 -18 5 -31 9 -10 16 -26 16 -35 0 -13 9 -17 38 -17 37 0 37 0 37
40 0 22 -6 45 -12 51 -9 9 -8 17 4 36 9 13 13 26 9 30 -3 3 -6 1 -6 -5z"/>
</g>
</svg>
