<?xml version="1.0" encoding="UTF-8"?>
<svg version="1.1" xmlns="http://www.w3.org/2000/svg" width="1080" height="1080">
<path d="M0 0 C2.11266705 -0.00083002 4.22533403 -0.00329439 6.33799744 -0.00730896 C10.75002651 -0.01015656 15.16154502 0.00443401 19.57348633 0.03198242 C25.20775547 0.06608385 30.84111375 0.06002977 36.47542667 0.04131985 C40.83283482 0.03071517 45.19003368 0.03971884 49.54742241 0.05470467 C51.62409276 0.05986006 53.70078521 0.05943705 55.77745247 0.05315971 C58.68682453 0.04766461 61.59492371 0.06821877 64.50415039 0.09545898 C65.77080536 0.08567017 65.77080536 0.08567017 67.06304932 0.07568359 C76.82683349 0.22990096 84.37922044 3.86023834 91.27734375 10.62890625 C91.99921875 11.24765625 92.72109375 11.86640625 93.46484375 12.50390625 C98.08134796 17.91635947 100.37909047 24.21892374 100.43556213 31.28594971 C100.45024536 32.68253311 100.45024536 32.68253311 100.46522522 34.10733032 C100.47098068 35.12153046 100.47673615 36.13573059 100.48266602 37.18066406 C100.49256561 38.25414093 100.50246521 39.3276178 100.51266479 40.43362427 C100.54426097 43.9830708 100.56902991 47.53253072 100.59375 51.08203125 C100.61432114 53.54254505 100.63531766 56.00305533 100.65672302 58.46356201 C100.7119271 64.94080758 100.76134379 71.41808496 100.80957031 77.89538574 C100.85979743 84.50450472 100.91547719 91.11357749 100.97070312 97.72265625 C101.07826437 110.69136651 101.17989905 123.66011623 101.27734375 136.62890625 C103.56914208 133.70439815 104.67740272 131.63916035 105.46484375 128.00390625 C108.58785147 117.05728123 118.01615106 108.9332215 127.55078125 103.28125 C132.71904797 100.60105221 136.7591103 99.49050844 142.52734375 99.56640625 C143.86539063 99.57994141 143.86539063 99.57994141 145.23046875 99.59375 C145.9059375 99.60535156 146.58140625 99.61695313 147.27734375 99.62890625 C147.44234375 98.61828125 147.60734375 97.60765625 147.77734375 96.56640625 C149.22745968 91.55227299 152.79619556 88.14688476 157.27734375 85.62890625 C159.95847908 85.08809822 162.54161483 84.8525822 165.27734375 84.62890625 C165.2309375 83.33855469 165.18453125 82.04820312 165.13671875 80.71875 C165.09917941 79.00132537 165.06278158 77.28387553 165.02734375 75.56640625 C164.99382812 74.71884766 164.9603125 73.87128906 164.92578125 72.99804688 C164.83284639 66.9805147 165.63920875 63.48594022 169.27734375 58.62890625 C173.80775981 54.95833992 178.08112309 55.20339511 183.64585876 55.2412262 C184.59328164 55.23584066 185.54070452 55.23045512 186.51683718 55.22490638 C189.69356695 55.21059143 192.8698821 55.21773936 196.04663086 55.22485352 C198.3233219 55.21915182 200.60001007 55.21218834 202.87669373 55.20405579 C209.06259474 55.18608739 215.24835419 55.1872997 221.43427348 55.19299817 C226.59599602 55.19608464 231.75769116 55.19000361 236.91940981 55.18395942 C249.79137443 55.16909983 262.6632395 55.1727379 275.53520025 55.18482273 C286.71151692 55.19475523 297.88766804 55.1818144 309.06395917 55.15788854 C320.54283755 55.13350025 332.02160959 55.12428878 343.50051886 55.13054127 C349.94384307 55.13391579 356.38703049 55.13146272 362.83033562 55.11429024 C368.88867673 55.09884898 374.9467012 55.10274561 381.00502968 55.12159538 C383.22945469 55.12528902 385.45390301 55.12215037 387.67830658 55.11170959 C390.71318674 55.09855141 393.74701069 55.11000188 396.78184509 55.12770081 C397.66365745 55.1180958 398.54546981 55.10849079 399.45400375 55.09859473 C404.86718617 55.16362025 408.00534276 55.99032586 412.27734375 59.62890625 C414.71254746 63.28171181 414.5731199 66.0098255 414.56787109 70.23388672 C414.57794693 71.39292511 414.57794693 71.39292511 414.58822632 72.57537842 C414.60723984 75.13234877 414.61113224 77.68905709 414.61328125 80.24609375 C414.61970709 82.02344878 414.62643529 83.80080273 414.63345337 85.57815552 C414.64543468 89.30554659 414.64913334 93.03284493 414.64794922 96.76025391 C414.64774603 101.53427193 414.6750436 106.30769463 414.70949364 111.08157158 C414.73174276 114.7533338 414.73578737 118.42495233 414.73472977 122.09677505 C414.7370889 123.85663021 414.74593002 125.61648914 414.7613945 127.37627792 C414.78101384 129.83965344 414.77523306 132.30173999 414.76318359 134.76513672 C414.77442261 135.49050629 414.78566162 136.21587585 414.79724121 136.96322632 C414.75371983 140.46855219 414.36121878 142.49386284 412.49697876 145.49539185 C409.27227865 148.59497539 406.67215613 149.87712202 402.19709301 149.88617516 C400.98462549 149.89584849 400.98462549 149.89584849 399.74766368 149.90571725 C398.4240894 149.90107145 398.4240894 149.90107145 397.07377625 149.89633179 C396.13199691 149.9008629 395.19021758 149.90539401 394.21989948 149.91006243 C391.05629947 149.92274781 387.89287071 149.92108338 384.72924805 149.91943359 C382.46418027 149.92541628 380.19911455 149.93222122 377.93405151 149.93978882 C371.77491302 149.95748299 365.61583007 149.96214565 359.45666862 149.96342039 C354.31746291 149.96531786 349.17827019 149.97267369 344.03906947 149.97976458 C332.60761359 149.99512818 321.17619392 150.00110134 309.74473038 149.99975388 C309.05883507 149.99967397 308.37293977 149.99959405 307.66625977 149.99951172 C306.97952593 149.99942996 306.2927921 149.9993482 305.58524815 149.99926396 C294.45804792 149.99845122 283.33098311 150.0175856 272.20382204 150.04578845 C260.77582909 150.07452496 249.34792959 150.08796213 237.91989452 150.0866009 C231.50501848 150.08609065 225.09029565 150.09180886 218.67545128 150.112957 C212.64175687 150.13230482 206.60836235 150.13248728 200.57465744 150.11792374 C198.36032359 150.11583023 196.14597115 150.12056867 193.93166924 150.13264465 C190.90804671 150.14806603 187.88546214 150.13880896 184.86186218 150.12338257 C183.9861715 150.13366969 183.11048081 150.14395682 182.20825404 150.15455568 C176.41832857 150.08930498 173.03093008 148.98586299 168.27734375 145.62890625 C164.6171084 140.62485225 164.91533799 135.69605119 165.08984375 129.75390625 C165.10337891 128.87476563 165.11691406 127.995625 165.13085938 127.08984375 C165.16597752 124.93593073 165.21977681 122.78233621 165.27734375 120.62890625 C163.41529297 120.46455078 163.41529297 120.46455078 161.515625 120.296875 C156.32475403 119.64158329 153.69027787 117.51134453 150.27734375 113.62890625 C147.78991078 109.69715737 147.14623194 107.20239469 147.27734375 102.62890625 C134.73553311 104.86991944 125.20402784 109.42393225 116.27734375 118.62890625 C114.32074324 121.34923898 114.32074324 121.34923898 113.27734375 123.62890625 C113.83421875 123.30535156 114.39109375 122.98179687 114.96484375 122.6484375 C117.57575416 121.49734355 119.43470192 121.32940614 122.27734375 121.31640625 C123.12296875 121.29964844 123.96859375 121.28289062 124.83984375 121.265625 C127.787533 121.70494407 129.14391864 122.57288432 131.27734375 124.62890625 C131.83984375 127.50390625 131.83984375 127.50390625 131.27734375 130.62890625 C128.12996625 134.70198301 125.29190784 136.56813308 120.27734375 137.62890625 C117.26768179 137.78096234 114.28776415 137.7274291 111.27734375 137.62890625 C109.95734375 137.62890625 108.63734375 137.62890625 107.27734375 137.62890625 C105.70215924 139.37368258 105.70215924 139.37368258 104.52734375 141.62890625 C104.099375 142.37140625 103.67140625 143.11390625 103.23046875 143.87890625 C102.9159375 144.45640625 102.60140625 145.03390625 102.27734375 145.62890625 C103.00904282 145.63477249 103.74074188 145.64063873 104.49461365 145.64668274 C111.42331049 145.70482241 118.35173714 145.77701934 125.2801199 145.86462116 C128.84126415 145.90916245 132.40229829 145.94845303 135.96362305 145.9753418 C140.06718044 146.0065628 144.17014074 146.06134403 148.2734375 146.1171875 C149.53941269 146.12357742 150.80538788 146.12996735 152.10972595 146.1365509 C159.05223465 146.25101458 164.87618859 146.88760849 171.27734375 149.62890625 C171.96650375 149.90821487 172.65566376 150.1875235 173.3657074 150.47529602 C182.70591177 154.40814751 190.76104849 162.64117959 195.27734375 171.62890625 C196.23521267 174.28755818 197.0372236 176.92225255 197.734375 179.66015625 C198.09932771 181.61544381 198.09932771 181.61544381 199.27734375 182.62890625 C199.37762497 184.48137385 199.40658572 186.33771535 199.40877151 188.19289398 C199.41261266 189.40852319 199.4164538 190.6241524 199.42041135 191.87661886 C199.41963096 193.24306335 199.41875214 194.60950778 199.41778564 195.97595215 C199.42036708 197.41408191 199.42337961 198.85221095 199.42678905 200.29033899 C199.43488898 204.26125853 199.43665028 208.23216003 199.43738651 212.20308685 C199.43923198 216.47867827 199.44677693 220.75426022 199.45352173 225.02984619 C199.46712869 234.38959561 199.47313397 243.74934077 199.47753239 253.10909843 C199.48029187 258.95174628 199.48452878 264.79439246 199.48903656 270.63703918 C199.5012343 286.80726772 199.51153132 302.97749493 199.51491165 319.14772797 C199.51513122 320.18359272 199.51535078 321.21945748 199.515577 322.28671208 C199.51579528 323.32509664 199.51601356 324.36348121 199.51623845 325.43333197 C199.51668192 327.53758589 199.51712848 329.64183982 199.51757812 331.74609375 C199.51779955 332.78988262 199.51802098 333.8336715 199.51824912 334.90909034 C199.52219501 351.8129333 199.5396404 368.7167331 199.56293765 385.62055939 C199.58665279 402.9674566 199.59911365 420.31433215 199.60027957 437.66124582 C199.60119645 447.40396376 199.60695171 457.14662553 199.62509918 466.889328 C199.64050263 475.18835064 199.64561933 483.48729976 199.63736108 491.78633398 C199.63345491 496.02031841 199.63438242 500.25415482 199.64841843 504.48812103 C199.66115988 508.36712503 199.65995774 512.24586981 199.64782771 516.12487346 C199.64587108 517.52540067 199.64894763 518.92594626 199.65767208 520.32644767 C199.70245875 528.00436056 199.33523246 534.53617413 196.27734375 541.62890625 C195.80296875 542.82515625 195.32859375 544.02140625 194.83984375 545.25390625 C193.17067866 548.85930285 191.29987383 552.21152784 189.27734375 555.62890625 C188.61734375 555.62890625 187.95734375 555.62890625 187.27734375 555.62890625 C187.18195313 556.21027344 187.0865625 556.79164063 186.98828125 557.390625 C184.67352883 564.6782796 175.86600377 569.49216384 169.79296875 573.37890625 C167.27734375 574.62890625 167.27734375 574.62890625 163.27734375 574.62890625 C163.27734375 575.28890625 163.27734375 575.94890625 163.27734375 576.62890625 C161.15788835 577.3129956 159.0313718 577.97521747 156.90234375 578.62890625 C155.71898437 579.00015625 154.535625 579.37140625 153.31640625 579.75390625 C148.66982362 580.9758119 144.04682914 580.80362156 139.27734375 580.62890625 C139.29829102 581.24411133 139.31923828 581.85931641 139.34082031 582.49316406 C139.42411392 585.28824434 139.47604388 588.0830634 139.52734375 590.87890625 C139.56085938 591.84699219 139.594375 592.81507813 139.62890625 593.8125 C139.64179687 594.74707031 139.6546875 595.68164062 139.66796875 596.64453125 C139.68891602 597.50336914 139.70986328 598.36220703 139.73144531 599.24707031 C139.10477189 602.53407348 137.88335299 603.56195585 135.27734375 605.62890625 C132.31762695 606.13684082 132.31762695 606.13684082 128.828125 606.14648438 C126.86588989 606.16539734 126.86588989 606.16539734 124.86401367 606.18469238 C123.43928488 606.17753258 122.01456101 606.16932859 120.58984375 606.16015625 C119.12540428 606.16285174 117.66096656 606.16673463 116.1965332 606.17175293 C113.12987195 606.17764544 110.06367726 606.16909371 106.99707031 606.15039062 C103.06920739 606.12760035 99.14243769 606.14072488 95.21461487 606.16468048 C92.19136338 606.17914566 89.16837042 606.17452936 86.14511108 606.16416931 C84.69705068 606.16150397 83.24896669 606.16476507 81.80093384 606.17408752 C79.77614805 606.18426284 77.75127981 606.16599957 75.7265625 606.14648438 C73.99925903 606.14171082 73.99925903 606.14171082 72.23706055 606.13684082 C69.27734375 605.62890625 69.27734375 605.62890625 65.27734375 601.62890625 C65.27734375 594.69890625 65.27734375 587.76890625 65.27734375 580.62890625 C39.53734375 580.62890625 13.79734375 580.62890625 -12.72265625 580.62890625 C-12.72265625 587.55890625 -12.72265625 594.48890625 -12.72265625 601.62890625 C-17.11296889 606.01921889 -17.41650265 606.13057888 -23.171875 606.14648438 C-24.48003174 606.15909302 -25.78818848 606.17170166 -27.13598633 606.18469238 C-28.56071512 606.17753258 -29.98543899 606.16932859 -31.41015625 606.16015625 C-32.87459572 606.16285174 -34.33903344 606.16673463 -35.8034668 606.17175293 C-38.87012805 606.17764544 -41.93632274 606.16909371 -45.00292969 606.15039062 C-48.93079261 606.12760035 -52.85756231 606.14072488 -56.78538513 606.16468048 C-59.80863662 606.17914566 -62.83162958 606.17452936 -65.85488892 606.16416931 C-67.30294932 606.16150397 -68.75103331 606.16476507 -70.19906616 606.17408752 C-72.22385195 606.18426284 -74.24872019 606.16599957 -76.2734375 606.14648438 C-78.00074097 606.14171082 -78.00074097 606.14171082 -79.76293945 606.13684082 C-83.34931531 605.52136157 -84.53227783 604.48127595 -86.72265625 601.62890625 C-87.17675781 599.24707031 -87.17675781 599.24707031 -87.11328125 596.64453125 C-87.10039062 595.70996094 -87.0875 594.77539062 -87.07421875 593.8125 C-87.04070312 592.84441406 -87.0071875 591.87632812 -86.97265625 590.87890625 C-86.95460938 589.89535156 -86.9365625 588.91179688 -86.91796875 587.8984375 C-86.87089751 585.47426842 -86.80516367 583.05208566 -86.72265625 580.62890625 C-87.35606934 580.65210938 -87.98948242 580.6753125 -88.64208984 580.69921875 C-94.3309582 580.81869245 -98.92236226 580.33095927 -104.34765625 578.62890625 C-105.55679688 578.25765625 -106.7659375 577.88640625 -108.01171875 577.50390625 C-108.90632813 577.21515625 -109.8009375 576.92640625 -110.72265625 576.62890625 C-110.72265625 575.96890625 -110.72265625 575.30890625 -110.72265625 574.62890625 C-111.63015625 574.50515625 -112.53765625 574.38140625 -113.47265625 574.25390625 C-116.31235948 573.70780948 -118.24856216 573.05626822 -120.72265625 571.62890625 C-120.72265625 570.96890625 -120.72265625 570.30890625 -120.72265625 569.62890625 C-121.44839844 569.39042969 -122.17414063 569.15195312 -122.921875 568.90625 C-126.14088441 567.43816621 -128.05196585 565.69930501 -130.53515625 563.19140625 C-131.32535156 562.40894531 -132.11554688 561.62648438 -132.9296875 560.8203125 C-134.72265625 558.62890625 -134.72265625 558.62890625 -134.72265625 555.62890625 C-135.71265625 555.29890625 -136.70265625 554.96890625 -137.72265625 554.62890625 C-141.92582758 548.0407293 -144.34561081 541.26524914 -145.72265625 533.62890625 C-146.05265625 533.29890625 -146.38265625 532.96890625 -146.72265625 532.62890625 C-146.822939 530.77550653 -146.85189825 528.91823468 -146.85408401 527.06212521 C-146.85792516 525.8458793 -146.8617663 524.62963339 -146.86572385 523.37653154 C-146.86494346 522.00939805 -146.86406465 520.6422646 -146.86309814 519.27513123 C-146.86567957 517.83628877 -146.8686921 516.39744703 -146.87210155 514.9586063 C-146.88020144 510.98575615 -146.88196278 507.01292403 -146.88269901 503.0400666 C-146.88454447 498.7624493 -146.89208938 494.48484147 -146.89883423 490.20722961 C-146.91244083 480.84341523 -146.91844632 471.47960512 -146.92284489 462.1157825 C-146.92560425 456.27113234 -146.92984112 450.42648383 -146.93434906 444.58183479 C-146.9465464 428.40731504 -146.95684373 412.23279662 -146.96022415 396.05827236 C-146.96044372 395.02215604 -146.96066328 393.98603972 -146.9608895 392.91852594 C-146.96110778 391.87988592 -146.96132606 390.84124589 -146.96155095 389.77113193 C-146.96199442 387.66635032 -146.96244098 385.56156872 -146.96289062 383.45678711 C-146.96311205 382.41273592 -146.96333348 381.36868474 -146.96356162 380.29299564 C-146.96750817 363.3820106 -146.98495572 346.47106869 -147.00825015 329.56010031 C-147.03196023 312.20755788 -147.0444259 294.85503708 -147.04559207 277.50247818 C-147.0465092 267.75587974 -147.05227074 258.00933743 -147.07041168 248.26275444 C-147.08580826 239.96114137 -147.09093587 231.65960177 -147.08267358 223.35797714 C-147.07876506 219.12209138 -147.07970637 214.88635358 -147.09373093 210.65048599 C-147.10645823 206.77091746 -147.10528269 202.89160826 -147.09314021 199.01204015 C-147.09118114 197.61018484 -147.09427143 196.20831125 -147.10298458 194.80648165 C-147.14624684 187.37421598 -146.928387 181.39219517 -143.72265625 174.62890625 C-143.35785156 173.82582031 -142.99304688 173.02273438 -142.6171875 172.1953125 C-136.26664813 160.43420528 -127.3011402 152.1624941 -114.72265625 147.62890625 C-110.88303338 146.69916035 -107.31751183 146.50747367 -103.37182617 146.51538086 C-101.48043159 146.51549416 -101.48043159 146.51549416 -99.55082703 146.51560974 C-98.18492594 146.52071556 -96.81902527 146.52593155 -95.453125 146.53125 C-94.04779613 146.53311655 -92.6424666 146.53453933 -91.23713684 146.53553772 C-87.549715 146.53934425 -83.86233295 146.54915851 -80.17492676 146.5602417 C-76.40763894 146.570496 -72.64034465 146.57504393 -68.87304688 146.58007812 C-61.48956525 146.59078255 -54.10611634 146.60783645 -46.72265625 146.62890625 C-46.72726521 146.01452257 -46.73187418 145.40013889 -46.73662281 144.76713753 C-46.84727984 129.78405262 -46.92989872 114.80109399 -46.98171711 99.81770515 C-47.00744538 92.57167973 -47.04249192 85.32592789 -47.09985352 78.08007812 C-47.14985448 71.76097638 -47.18198632 65.44207287 -47.19309872 59.12277877 C-47.19958981 55.7797863 -47.21739373 52.43780764 -47.25130653 49.09491348 C-47.28774391 45.35346483 -47.29259512 41.61318032 -47.2902832 37.87158203 C-47.30825958 36.77609543 -47.32623596 35.68060883 -47.34475708 34.55192566 C-47.29506766 27.09228794 -45.56835168 21.98904271 -41.72265625 15.62890625 C-41.38049733 15.01111361 -41.03833841 14.39332096 -40.68581104 13.75680733 C-38.58397402 10.20433292 -36.69321003 8.73183786 -32.72265625 7.62890625 C-32.72265625 6.96890625 -32.72265625 6.30890625 -32.72265625 5.62890625 C-22.57034758 -0.99465772 -11.62657004 -0.08289199 0 0 Z M-29.72265625 63.62890625 C-29.72265625 91.01890625 -29.72265625 118.40890625 -29.72265625 146.62890625 C7.89734375 146.62890625 45.51734375 146.62890625 84.27734375 146.62890625 C84.27734375 119.23890625 84.27734375 91.84890625 84.27734375 63.62890625 C46.65734375 63.62890625 9.03734375 63.62890625 -29.72265625 63.62890625 Z M163.27734375 98.62890625 C162.61734375 100.27890625 161.95734375 101.92890625 161.27734375 103.62890625 C162.2558457 104.64995176 163.25714802 105.64951835 164.27734375 106.62890625 C164.60734375 106.62890625 164.93734375 106.62890625 165.27734375 106.62890625 C165.27734375 103.98890625 165.27734375 101.34890625 165.27734375 98.62890625 C164.61734375 98.62890625 163.95734375 98.62890625 163.27734375 98.62890625 Z M115.27734375 127.62890625 C112.86589894 130.1598983 112.86589894 130.1598983 111.27734375 132.62890625 C112.47775495 134.04853667 112.47775495 134.04853667 115.96484375 133.87890625 C120.0456221 133.82019001 122.85293502 132.96752685 126.27734375 130.62890625 C127.23778477 128.55200047 127.23778477 128.55200047 127.27734375 126.62890625 C122.48968139 123.87237338 119.94049206 125.0005863 115.27734375 127.62890625 Z " fill="#B0D6F8" transform="translate(513.72265625,152.37109375)"/>
<path d="M0 0 C2.11266705 -0.00083002 4.22533403 -0.00329439 6.33799744 -0.00730896 C10.75002651 -0.01015656 15.16154502 0.00443401 19.57348633 0.03198242 C25.20775547 0.06608385 30.84111375 0.06002977 36.47542667 0.04131985 C40.83283482 0.03071517 45.19003368 0.03971884 49.54742241 0.05470467 C51.62409276 0.05986006 53.70078521 0.05943705 55.77745247 0.05315971 C58.68682453 0.04766461 61.59492371 0.06821877 64.50415039 0.09545898 C65.77080536 0.08567017 65.77080536 0.08567017 67.06304932 0.07568359 C76.82683349 0.22990096 84.37922044 3.86023834 91.27734375 10.62890625 C91.99921875 11.24765625 92.72109375 11.86640625 93.46484375 12.50390625 C98.08134796 17.91635947 100.37909047 24.21892374 100.43556213 31.28594971 C100.45024536 32.68253311 100.45024536 32.68253311 100.46522522 34.10733032 C100.47098068 35.12153046 100.47673615 36.13573059 100.48266602 37.18066406 C100.49256561 38.25414093 100.50246521 39.3276178 100.51266479 40.43362427 C100.54426097 43.9830708 100.56902991 47.53253072 100.59375 51.08203125 C100.61432114 53.54254505 100.63531766 56.00305533 100.65672302 58.46356201 C100.7119271 64.94080758 100.76134379 71.41808496 100.80957031 77.89538574 C100.85979743 84.50450472 100.91547719 91.11357749 100.97070312 97.72265625 C101.07826437 110.69136651 101.17989905 123.66011623 101.27734375 136.62890625 C103.56914208 133.70439815 104.67740272 131.63916035 105.46484375 128.00390625 C108.58785147 117.05728123 118.01615106 108.9332215 127.55078125 103.28125 C132.71904797 100.60105221 136.7591103 99.49050844 142.52734375 99.56640625 C143.86539063 99.57994141 143.86539063 99.57994141 145.23046875 99.59375 C145.9059375 99.60535156 146.58140625 99.61695313 147.27734375 99.62890625 C147.44234375 98.61828125 147.60734375 97.60765625 147.77734375 96.56640625 C149.22745968 91.55227299 152.79619556 88.14688476 157.27734375 85.62890625 C159.95847908 85.08809822 162.54161483 84.8525822 165.27734375 84.62890625 C165.2309375 83.33855469 165.18453125 82.04820312 165.13671875 80.71875 C165.09917941 79.00132537 165.06278158 77.28387553 165.02734375 75.56640625 C164.99382812 74.71884766 164.9603125 73.87128906 164.92578125 72.99804688 C164.83284639 66.9805147 165.63920875 63.48594022 169.27734375 58.62890625 C173.80775981 54.95833992 178.08112309 55.20339511 183.64585876 55.2412262 C184.59328164 55.23584066 185.54070452 55.23045512 186.51683718 55.22490638 C189.69356695 55.21059143 192.8698821 55.21773936 196.04663086 55.22485352 C198.3233219 55.21915182 200.60001007 55.21218834 202.87669373 55.20405579 C209.06259474 55.18608739 215.24835419 55.1872997 221.43427348 55.19299817 C226.59599602 55.19608464 231.75769116 55.19000361 236.91940981 55.18395942 C249.79137443 55.16909983 262.6632395 55.1727379 275.53520025 55.18482273 C286.71151692 55.19475523 297.88766804 55.1818144 309.06395917 55.15788854 C320.54283755 55.13350025 332.02160959 55.12428878 343.50051886 55.13054127 C349.94384307 55.13391579 356.38703049 55.13146272 362.83033562 55.11429024 C368.88867673 55.09884898 374.9467012 55.10274561 381.00502968 55.12159538 C383.22945469 55.12528902 385.45390301 55.12215037 387.67830658 55.11170959 C390.71318674 55.09855141 393.74701069 55.11000188 396.78184509 55.12770081 C397.66365745 55.1180958 398.54546981 55.10849079 399.45400375 55.09859473 C404.86718617 55.16362025 408.00534276 55.99032586 412.27734375 59.62890625 C414.71254746 63.28171181 414.5731199 66.0098255 414.56787109 70.23388672 C414.57794693 71.39292511 414.57794693 71.39292511 414.58822632 72.57537842 C414.60723984 75.13234877 414.61113224 77.68905709 414.61328125 80.24609375 C414.61970709 82.02344878 414.62643529 83.80080273 414.63345337 85.57815552 C414.64543468 89.30554659 414.64913334 93.03284493 414.64794922 96.76025391 C414.64774603 101.53427193 414.6750436 106.30769463 414.70949364 111.08157158 C414.73174276 114.7533338 414.73578737 118.42495233 414.73472977 122.09677505 C414.7370889 123.85663021 414.74593002 125.61648914 414.7613945 127.37627792 C414.78101384 129.83965344 414.77523306 132.30173999 414.76318359 134.76513672 C414.77442261 135.49050629 414.78566162 136.21587585 414.79724121 136.96322632 C414.75371983 140.46855219 414.36121878 142.49386284 412.49697876 145.49539185 C409.27227865 148.59497539 406.67215613 149.87712202 402.19709301 149.88617516 C400.98462549 149.89584849 400.98462549 149.89584849 399.74766368 149.90571725 C398.4240894 149.90107145 398.4240894 149.90107145 397.07377625 149.89633179 C396.13199691 149.9008629 395.19021758 149.90539401 394.21989948 149.91006243 C391.05629947 149.92274781 387.89287071 149.92108338 384.72924805 149.91943359 C382.46418027 149.92541628 380.19911455 149.93222122 377.93405151 149.93978882 C371.77491302 149.95748299 365.61583007 149.96214565 359.45666862 149.96342039 C354.31746291 149.96531786 349.17827019 149.97267369 344.03906947 149.97976458 C332.60761359 149.99512818 321.17619392 150.00110134 309.74473038 149.99975388 C309.05883507 149.99967397 308.37293977 149.99959405 307.66625977 149.99951172 C306.97952593 149.99942996 306.2927921 149.9993482 305.58524815 149.99926396 C294.45804792 149.99845122 283.33098311 150.0175856 272.20382204 150.04578845 C260.77582909 150.07452496 249.34792959 150.08796213 237.91989452 150.0866009 C231.50501848 150.08609065 225.09029565 150.09180886 218.67545128 150.112957 C212.64175687 150.13230482 206.60836235 150.13248728 200.57465744 150.11792374 C198.36032359 150.11583023 196.14597115 150.12056867 193.93166924 150.13264465 C190.90804671 150.14806603 187.88546214 150.13880896 184.86186218 150.12338257 C183.9861715 150.13366969 183.11048081 150.14395682 182.20825404 150.15455568 C176.41832857 150.08930498 173.03093008 148.98586299 168.27734375 145.62890625 C164.6171084 140.62485225 164.91533799 135.69605119 165.08984375 129.75390625 C165.10337891 128.87476563 165.11691406 127.995625 165.13085938 127.08984375 C165.16597752 124.93593073 165.21977681 122.78233621 165.27734375 120.62890625 C163.41529297 120.46455078 163.41529297 120.46455078 161.515625 120.296875 C156.32475403 119.64158329 153.69027787 117.51134453 150.27734375 113.62890625 C147.78991078 109.69715737 147.14623194 107.20239469 147.27734375 102.62890625 C134.73553311 104.86991944 125.20402784 109.42393225 116.27734375 118.62890625 C114.32074324 121.34923898 114.32074324 121.34923898 113.27734375 123.62890625 C113.83421875 123.30535156 114.39109375 122.98179687 114.96484375 122.6484375 C117.57575416 121.49734355 119.43470192 121.32940614 122.27734375 121.31640625 C123.12296875 121.29964844 123.96859375 121.28289062 124.83984375 121.265625 C127.787533 121.70494407 129.14391864 122.57288432 131.27734375 124.62890625 C131.83984375 127.50390625 131.83984375 127.50390625 131.27734375 130.62890625 C128.12996625 134.70198301 125.29190784 136.56813308 120.27734375 137.62890625 C117.26768179 137.78096234 114.28776415 137.7274291 111.27734375 137.62890625 C109.95734375 137.62890625 108.63734375 137.62890625 107.27734375 137.62890625 C105.70215924 139.37368258 105.70215924 139.37368258 104.52734375 141.62890625 C104.099375 142.37140625 103.67140625 143.11390625 103.23046875 143.87890625 C102.9159375 144.45640625 102.60140625 145.03390625 102.27734375 145.62890625 C103.00904282 145.63477249 103.74074188 145.64063873 104.49461365 145.64668274 C111.42331049 145.70482241 118.35173714 145.77701934 125.2801199 145.86462116 C128.84126415 145.90916245 132.40229829 145.94845303 135.96362305 145.9753418 C140.06718044 146.0065628 144.17014074 146.06134403 148.2734375 146.1171875 C149.53941269 146.12357742 150.80538788 146.12996735 152.10972595 146.1365509 C159.05223465 146.25101458 164.87618859 146.88760849 171.27734375 149.62890625 C171.96650375 149.90821487 172.65566376 150.1875235 173.3657074 150.47529602 C182.70591177 154.40814751 190.76104849 162.64117959 195.27734375 171.62890625 C196.23521267 174.28755818 197.0372236 176.92225255 197.734375 179.66015625 C198.09932771 181.61544381 198.09932771 181.61544381 199.27734375 182.62890625 C199.37762497 184.48137385 199.40658572 186.33771535 199.40877151 188.19289398 C199.41261266 189.40852319 199.4164538 190.6241524 199.42041135 191.87661886 C199.41963096 193.24306335 199.41875214 194.60950778 199.41778564 195.97595215 C199.42036708 197.41408191 199.42337961 198.85221095 199.42678905 200.29033899 C199.43488898 204.26125853 199.43665028 208.23216003 199.43738651 212.20308685 C199.43923198 216.47867827 199.44677693 220.75426022 199.45352173 225.02984619 C199.46712869 234.38959561 199.47313397 243.74934077 199.47753239 253.10909843 C199.48029187 258.95174628 199.48452878 264.79439246 199.48903656 270.63703918 C199.5012343 286.80726772 199.51153132 302.97749493 199.51491165 319.14772797 C199.51513122 320.18359272 199.51535078 321.21945748 199.515577 322.28671208 C199.51579528 323.32509664 199.51601356 324.36348121 199.51623845 325.43333197 C199.51668192 327.53758589 199.51712848 329.64183982 199.51757812 331.74609375 C199.51779955 332.78988262 199.51802098 333.8336715 199.51824912 334.90909034 C199.52219501 351.8129333 199.5396404 368.7167331 199.56293765 385.62055939 C199.58665279 402.9674566 199.59911365 420.31433215 199.60027957 437.66124582 C199.60119645 447.40396376 199.60695171 457.14662553 199.62509918 466.889328 C199.64050263 475.18835064 199.64561933 483.48729976 199.63736108 491.78633398 C199.63345491 496.02031841 199.63438242 500.25415482 199.64841843 504.48812103 C199.66115988 508.36712503 199.65995774 512.24586981 199.64782771 516.12487346 C199.64587108 517.52540067 199.64894763 518.92594626 199.65767208 520.32644767 C199.70245875 528.00436056 199.33523246 534.53617413 196.27734375 541.62890625 C195.80296875 542.82515625 195.32859375 544.02140625 194.83984375 545.25390625 C193.17067866 548.85930285 191.29987383 552.21152784 189.27734375 555.62890625 C188.61734375 555.62890625 187.95734375 555.62890625 187.27734375 555.62890625 C187.18195313 556.21027344 187.0865625 556.79164063 186.98828125 557.390625 C184.67352883 564.6782796 175.86600377 569.49216384 169.79296875 573.37890625 C167.27734375 574.62890625 167.27734375 574.62890625 163.27734375 574.62890625 C163.27734375 575.28890625 163.27734375 575.94890625 163.27734375 576.62890625 C161.15788835 577.3129956 159.0313718 577.97521747 156.90234375 578.62890625 C155.71898437 579.00015625 154.535625 579.37140625 153.31640625 579.75390625 C148.66982362 580.9758119 144.04682914 580.80362156 139.27734375 580.62890625 C139.29829102 581.24411133 139.31923828 581.85931641 139.34082031 582.49316406 C139.42411392 585.28824434 139.47604388 588.0830634 139.52734375 590.87890625 C139.56085938 591.84699219 139.594375 592.81507813 139.62890625 593.8125 C139.64179687 594.74707031 139.6546875 595.68164062 139.66796875 596.64453125 C139.68891602 597.50336914 139.70986328 598.36220703 139.73144531 599.24707031 C139.10477189 602.53407348 137.88335299 603.56195585 135.27734375 605.62890625 C132.31762695 606.13684082 132.31762695 606.13684082 128.828125 606.14648438 C126.86588989 606.16539734 126.86588989 606.16539734 124.86401367 606.18469238 C123.43928488 606.17753258 122.01456101 606.16932859 120.58984375 606.16015625 C119.12540428 606.16285174 117.66096656 606.16673463 116.1965332 606.17175293 C113.12987195 606.17764544 110.06367726 606.16909371 106.99707031 606.15039062 C103.06920739 606.12760035 99.14243769 606.14072488 95.21461487 606.16468048 C92.19136338 606.17914566 89.16837042 606.17452936 86.14511108 606.16416931 C84.69705068 606.16150397 83.24896669 606.16476507 81.80093384 606.17408752 C79.77614805 606.18426284 77.75127981 606.16599957 75.7265625 606.14648438 C73.99925903 606.14171082 73.99925903 606.14171082 72.23706055 606.13684082 C69.27734375 605.62890625 69.27734375 605.62890625 65.27734375 601.62890625 C65.27734375 594.69890625 65.27734375 587.76890625 65.27734375 580.62890625 C39.53734375 580.62890625 13.79734375 580.62890625 -12.72265625 580.62890625 C-12.72265625 587.55890625 -12.72265625 594.48890625 -12.72265625 601.62890625 C-17.11296889 606.01921889 -17.41650265 606.13057888 -23.171875 606.14648438 C-24.48003174 606.15909302 -25.78818848 606.17170166 -27.13598633 606.18469238 C-28.56071512 606.17753258 -29.98543899 606.16932859 -31.41015625 606.16015625 C-32.87459572 606.16285174 -34.33903344 606.16673463 -35.8034668 606.17175293 C-38.87012805 606.17764544 -41.93632274 606.16909371 -45.00292969 606.15039062 C-48.93079261 606.12760035 -52.85756231 606.14072488 -56.78538513 606.16468048 C-59.80863662 606.17914566 -62.83162958 606.17452936 -65.85488892 606.16416931 C-67.30294932 606.16150397 -68.75103331 606.16476507 -70.19906616 606.17408752 C-72.22385195 606.18426284 -74.24872019 606.16599957 -76.2734375 606.14648438 C-78.00074097 606.14171082 -78.00074097 606.14171082 -79.76293945 606.13684082 C-83.34931531 605.52136157 -84.53227783 604.48127595 -86.72265625 601.62890625 C-87.17675781 599.24707031 -87.17675781 599.24707031 -87.11328125 596.64453125 C-87.10039062 595.70996094 -87.0875 594.77539062 -87.07421875 593.8125 C-87.04070312 592.84441406 -87.0071875 591.87632812 -86.97265625 590.87890625 C-86.95460938 589.89535156 -86.9365625 588.91179688 -86.91796875 587.8984375 C-86.87089751 585.47426842 -86.80516367 583.05208566 -86.72265625 580.62890625 C-87.35606934 580.65210938 -87.98948242 580.6753125 -88.64208984 580.69921875 C-94.3309582 580.81869245 -98.92236226 580.33095927 -104.34765625 578.62890625 C-105.55679688 578.25765625 -106.7659375 577.88640625 -108.01171875 577.50390625 C-108.90632813 577.21515625 -109.8009375 576.92640625 -110.72265625 576.62890625 C-110.72265625 575.96890625 -110.72265625 575.30890625 -110.72265625 574.62890625 C-111.63015625 574.50515625 -112.53765625 574.38140625 -113.47265625 574.25390625 C-116.31235948 573.70780948 -118.24856216 573.05626822 -120.72265625 571.62890625 C-120.72265625 570.96890625 -120.72265625 570.30890625 -120.72265625 569.62890625 C-121.44839844 569.39042969 -122.17414063 569.15195312 -122.921875 568.90625 C-126.14088441 567.43816621 -128.05196585 565.69930501 -130.53515625 563.19140625 C-131.32535156 562.40894531 -132.11554688 561.62648438 -132.9296875 560.8203125 C-134.72265625 558.62890625 -134.72265625 558.62890625 -134.72265625 555.62890625 C-135.71265625 555.29890625 -136.70265625 554.96890625 -137.72265625 554.62890625 C-141.92582758 548.0407293 -144.34561081 541.26524914 -145.72265625 533.62890625 C-146.05265625 533.29890625 -146.38265625 532.96890625 -146.72265625 532.62890625 C-146.822939 530.77550653 -146.85189825 528.91823468 -146.85408401 527.06212521 C-146.85792516 525.8458793 -146.8617663 524.62963339 -146.86572385 523.37653154 C-146.86494346 522.00939805 -146.86406465 520.6422646 -146.86309814 519.27513123 C-146.86567957 517.83628877 -146.8686921 516.39744703 -146.87210155 514.9586063 C-146.88020144 510.98575615 -146.88196278 507.01292403 -146.88269901 503.0400666 C-146.88454447 498.7624493 -146.89208938 494.48484147 -146.89883423 490.20722961 C-146.91244083 480.84341523 -146.91844632 471.47960512 -146.92284489 462.1157825 C-146.92560425 456.27113234 -146.92984112 450.42648383 -146.93434906 444.58183479 C-146.9465464 428.40731504 -146.95684373 412.23279662 -146.96022415 396.05827236 C-146.96044372 395.02215604 -146.96066328 393.98603972 -146.9608895 392.91852594 C-146.96110778 391.87988592 -146.96132606 390.84124589 -146.96155095 389.77113193 C-146.96199442 387.66635032 -146.96244098 385.56156872 -146.96289062 383.45678711 C-146.96311205 382.41273592 -146.96333348 381.36868474 -146.96356162 380.29299564 C-146.96750817 363.3820106 -146.98495572 346.47106869 -147.00825015 329.56010031 C-147.03196023 312.20755788 -147.0444259 294.85503708 -147.04559207 277.50247818 C-147.0465092 267.75587974 -147.05227074 258.00933743 -147.07041168 248.26275444 C-147.08580826 239.96114137 -147.09093587 231.65960177 -147.08267358 223.35797714 C-147.07876506 219.12209138 -147.07970637 214.88635358 -147.09373093 210.65048599 C-147.10645823 206.77091746 -147.10528269 202.89160826 -147.09314021 199.01204015 C-147.09118114 197.61018484 -147.09427143 196.20831125 -147.10298458 194.80648165 C-147.14624684 187.37421598 -146.928387 181.39219517 -143.72265625 174.62890625 C-143.35785156 173.82582031 -142.99304688 173.02273438 -142.6171875 172.1953125 C-136.26664813 160.43420528 -127.3011402 152.1624941 -114.72265625 147.62890625 C-110.88303338 146.69916035 -107.31751183 146.50747367 -103.37182617 146.51538086 C-101.48043159 146.51549416 -101.48043159 146.51549416 -99.55082703 146.51560974 C-98.18492594 146.52071556 -96.81902527 146.52593155 -95.453125 146.53125 C-94.04779613 146.53311655 -92.6424666 146.53453933 -91.23713684 146.53553772 C-87.549715 146.53934425 -83.86233295 146.54915851 -80.17492676 146.5602417 C-76.40763894 146.570496 -72.64034465 146.57504393 -68.87304688 146.58007812 C-61.48956525 146.59078255 -54.10611634 146.60783645 -46.72265625 146.62890625 C-46.72726521 146.01452257 -46.73187418 145.40013889 -46.73662281 144.76713753 C-46.84727984 129.78405262 -46.92989872 114.80109399 -46.98171711 99.81770515 C-47.00744538 92.57167973 -47.04249192 85.32592789 -47.09985352 78.08007812 C-47.14985448 71.76097638 -47.18198632 65.44207287 -47.19309872 59.12277877 C-47.19958981 55.7797863 -47.21739373 52.43780764 -47.25130653 49.09491348 C-47.28774391 45.35346483 -47.29259512 41.61318032 -47.2902832 37.87158203 C-47.30825958 36.77609543 -47.32623596 35.68060883 -47.34475708 34.55192566 C-47.29506766 27.09228794 -45.56835168 21.98904271 -41.72265625 15.62890625 C-41.38049733 15.01111361 -41.03833841 14.39332096 -40.68581104 13.75680733 C-38.58397402 10.20433292 -36.69321003 8.73183786 -32.72265625 7.62890625 C-32.72265625 6.96890625 -32.72265625 6.30890625 -32.72265625 5.62890625 C-22.57034758 -0.99465772 -11.62657004 -0.08289199 0 0 Z M-29.72265625 63.62890625 C-29.72265625 91.01890625 -29.72265625 118.40890625 -29.72265625 146.62890625 C7.89734375 146.62890625 45.51734375 146.62890625 84.27734375 146.62890625 C84.27734375 119.23890625 84.27734375 91.84890625 84.27734375 63.62890625 C46.65734375 63.62890625 9.03734375 63.62890625 -29.72265625 63.62890625 Z M163.27734375 98.62890625 C162.61734375 100.27890625 161.95734375 101.92890625 161.27734375 103.62890625 C162.2558457 104.64995176 163.25714802 105.64951835 164.27734375 106.62890625 C164.60734375 106.62890625 164.93734375 106.62890625 165.27734375 106.62890625 C165.27734375 103.98890625 165.27734375 101.34890625 165.27734375 98.62890625 C164.61734375 98.62890625 163.95734375 98.62890625 163.27734375 98.62890625 Z M115.27734375 127.62890625 C112.86589894 130.1598983 112.86589894 130.1598983 111.27734375 132.62890625 C112.47775495 134.04853667 112.47775495 134.04853667 115.96484375 133.87890625 C120.0456221 133.82019001 122.85293502 132.96752685 126.27734375 130.62890625 C127.23778477 128.55200047 127.23778477 128.55200047 127.27734375 126.62890625 C122.48968139 123.87237338 119.94049206 125.0005863 115.27734375 127.62890625 Z M-127 177.48828125 C-130.07109858 182.60313582 -130.84726264 186.53498143 -130.8512907 192.41868782 C-130.85451515 193.60832292 -130.8577396 194.79795801 -130.86106175 196.02364266 C-130.85951315 197.33198346 -130.85796455 198.64032427 -130.85636902 199.98831177 C-130.85823689 201.39119461 -130.8605375 202.79407693 -130.86323434 204.19695842 C-130.86936195 208.05655749 -130.86921761 211.91613493 -130.86803997 215.77573776 C-130.86783619 219.93677353 -130.87335255 224.09780231 -130.87809753 228.25883484 C-130.88641055 236.41381159 -130.88915269 244.56878112 -130.88970991 252.72376175 C-130.89018488 259.35354033 -130.8922387 265.98331651 -130.89541054 272.61309433 C-130.90421986 291.4089035 -130.90882963 310.20470696 -130.90808006 329.00051822 C-130.90804011 330.01419486 -130.90800015 331.02787151 -130.90795898 332.07226562 C-130.9079181 333.08718015 -130.90787722 334.10209468 -130.9078351 335.14776419 C-130.90742883 351.58837413 -130.91699283 368.02896114 -130.93109735 384.46956445 C-130.94546478 401.34986625 -130.95236729 418.23015687 -130.95150357 435.11046493 C-130.95117167 444.58767214 -130.95391571 454.06485534 -130.96468163 463.54205704 C-130.97379157 471.61333004 -130.97595791 479.68456815 -130.9691722 487.75584407 C-130.96590914 491.87247683 -130.96584253 495.98904265 -130.97452545 500.10566902 C-130.98240112 503.87846914 -130.98094815 507.65114937 -130.97224132 511.4239466 C-130.96998571 513.4265378 -130.97752674 515.42913274 -130.98548096 517.43170941 C-130.96991843 527.68048648 -130.96991843 527.68048648 -128.72265625 537.62890625 C-128.06265625 537.95890625 -127.40265625 538.28890625 -126.72265625 538.62890625 C-125.66912782 540.93856473 -124.66546529 543.27188365 -123.72265625 545.62890625 C-123.06265625 545.62890625 -122.40265625 545.62890625 -121.72265625 545.62890625 C-121.41328125 546.74265625 -121.41328125 546.74265625 -121.09765625 547.87890625 C-119.31406917 551.44608042 -117.08475506 552.57047841 -113.72265625 554.62890625 C-113.24828125 555.12390625 -112.77390625 555.61890625 -112.28515625 556.12890625 C-107.66171258 560.56741217 -102.91913755 562.12307104 -96.72265625 562.62890625 C-96.72265625 563.28890625 -96.72265625 563.94890625 -96.72265625 564.62890625 C-15.54265625 564.62890625 65.63734375 564.62890625 149.27734375 564.62890625 C149.27734375 563.96890625 149.27734375 563.30890625 149.27734375 562.62890625 C150.73140625 562.25765625 150.73140625 562.25765625 152.21484375 561.87890625 C159.39779179 559.79541422 165.29348771 557.37950937 170.27734375 551.62890625 C170.93992187 550.92121094 171.6025 550.21351563 172.28515625 549.484375 C175.84100773 545.6417613 178.53668156 542.6145066 180.27734375 537.62890625 C181.03763272 535.99616477 181.03763272 535.99616477 181.81328106 534.33043861 C184.06653999 528.27686122 183.68754823 522.06409407 183.65156555 515.68563843 C183.65430866 514.26820059 183.6583629 512.85076478 183.66360921 511.43333399 C183.67416793 507.55217222 183.66608544 503.6712417 183.65485871 499.79009008 C183.64600086 495.59920105 183.65446473 491.40834176 183.66072083 487.217453 C183.67020113 479.01353575 183.66361597 470.80970656 183.65145788 462.60579585 C183.63782732 453.05200552 183.63947664 443.49823611 183.64159121 433.94443853 C183.64477989 416.89946439 183.63311968 399.85453206 183.61352539 382.80957031 C183.59451578 366.26886726 183.58743956 349.7282132 183.59301758 333.1875 C183.59907437 315.17378495 183.59890059 297.16009143 183.58753175 279.14637816 C183.58632445 277.22594873 183.58511847 275.3055193 183.5839138 273.38508987 C183.58331026 272.44020423 183.58270673 271.49531858 183.5820849 270.52180003 C183.57820482 263.86151956 183.5785997 257.2012471 183.58049965 250.54096603 C183.58262097 242.42648253 183.5774021 234.31204195 183.5628861 226.19757055 C183.5556392 222.05710775 183.55156764 217.91670748 183.55612946 213.7762394 C183.5602033 209.98652894 183.55504773 206.19694765 183.54250338 202.4072568 C183.538185 200.3859997 183.54366877 198.36472902 183.54949266 196.3434757 C183.54366046 195.14165832 183.53782827 193.93984093 183.53181934 192.70160484 C183.53095257 191.66626716 183.53008579 190.63092948 183.52919275 189.56421793 C183.25215316 186.33530872 182.41339584 183.65399435 181.27734375 180.62890625 C180.61734375 180.62890625 179.95734375 180.62890625 179.27734375 180.62890625 C179.24640625 179.57703125 179.24640625 179.57703125 179.21484375 178.50390625 C178.00057771 174.78015708 176.06443408 173.43485821 173.05078125 171.0546875 C171.27734375 169.62890625 171.27734375 169.62890625 169.08984375 167.25390625 C167.18667958 165.18387624 167.18667958 165.18387624 163.27734375 165.62890625 C163.27734375 164.96890625 163.27734375 164.30890625 163.27734375 163.62890625 C160.44144278 162.68360593 158.69203518 162.49955885 155.75347137 162.48909855 C154.8207319 162.48340731 153.88799243 162.47771607 152.92698812 162.47185236 C151.90045582 162.47067249 150.87392352 162.46949261 149.81628418 162.46827698 C148.18249305 162.46064525 148.18249305 162.46064525 146.51569605 162.45285934 C142.84705388 162.43709852 139.17843145 162.42860015 135.50976562 162.42016602 C132.88680902 162.41063039 130.26385368 162.40073936 127.64089966 162.39051819 C119.75475839 162.3612367 111.86860559 162.34204482 103.98242927 162.32512584 C101.75422683 162.32033001 99.52602488 162.31534677 97.29782295 162.31032062 C83.45599193 162.2793443 69.6141567 162.25266328 55.77230072 162.23590183 C52.56597384 162.23195243 49.35964704 162.22794942 46.15332031 162.22387695 C45.35641747 162.22286859 44.55951463 162.22186023 43.73846322 162.22082131 C30.83880301 162.20382667 17.93933506 162.16273153 5.03976864 162.11185396 C-8.20977426 162.06002694 -21.45921843 162.03095273 -34.70886183 162.02370495 C-42.14565096 162.01904864 -49.58212549 162.00436057 -57.01881409 161.96396065 C-63.3546988 161.92958249 -69.69021213 161.91575245 -76.02618474 161.92838479 C-79.25618673 161.93419417 -82.4852431 161.92716741 -85.71516037 161.90021515 C-89.22599367 161.87249088 -92.73487671 161.88206405 -96.24572754 161.90065002 C-97.75875733 161.87545763 -97.75875733 161.87545763 -99.30235338 161.8497563 C-110.77179452 162.00085765 -120.54656797 168.09429457 -127 177.48828125 Z " fill="#8BB1D1" transform="translate(513.72265625,152.37109375)"/>
<path d="M0 0 C0.76441406 0.09667969 1.52882813 0.19335938 2.31640625 0.29296875 C4.4375 0.8125 4.4375 0.8125 7.4375 2.8125 C7.81239682 4.87731063 7.81239682 4.87731063 7.81223011 7.48275566 C7.81943665 8.47355531 7.8266432 9.46435495 7.83406812 10.48517883 C7.82669383 11.58165398 7.81931955 12.67812914 7.8117218 13.80783081 C7.81569621 14.96644627 7.81967061 16.12506172 7.82376546 17.31878674 C7.83175139 20.54471349 7.82619758 23.77029697 7.81501496 26.99620414 C7.80619973 30.47140975 7.81460875 33.94657827 7.82087708 37.42178345 C7.83038343 44.23418771 7.8237489 51.04648633 7.81161413 57.85888277 C7.79801555 65.78754349 7.79963015 73.71617883 7.80174746 81.64484824 C7.80494014 95.79043489 7.79325452 109.93597124 7.77368164 124.08154297 C7.75468351 137.81528252 7.74759187 151.5489631 7.75317383 165.28271484 C7.75922934 180.22586174 7.75905817 195.16898268 7.747688 210.11212742 C7.74648067 211.70514432 7.74527469 213.29816123 7.74407005 214.89117813 C7.74346651 215.67503262 7.74286298 216.45888711 7.74224115 217.26649477 C7.73835848 222.79602223 7.738757 228.32554004 7.7406559 233.85506821 C7.74277639 240.59331476 7.7375651 247.33150961 7.72304235 254.06974159 C7.71578994 257.50917659 7.71172847 260.94853621 7.71628571 264.3879776 C7.71949259 268.11313663 7.71046313 271.83806645 7.69819641 275.5632019 C7.70197573 276.65521562 7.70575506 277.74722933 7.70964891 278.87233436 C7.70381671 279.8683495 7.69798452 280.86436464 7.69197559 281.89056206 C7.69067543 283.1807444 7.69067543 283.1807444 7.689349 284.49699104 C7.41221979 287.0449272 6.80257476 288.65259461 5.4375 290.8125 C2.30349115 292.37950442 -1.19405095 292.66414561 -4.5625 291.8125 C-7.07453535 289.62992243 -8.40334184 287.81167122 -8.93279362 284.48785186 C-9.08063548 281.46865922 -9.09521556 278.47247528 -9.07043457 275.44967651 C-9.07667453 274.28779222 -9.0829145 273.12590792 -9.08934355 271.92881501 C-9.10253779 268.70765067 -9.09778974 265.48708924 -9.08539867 262.26593995 C-9.07635181 258.79078603 -9.09031593 255.31571387 -9.10131836 251.84057617 C-9.11911103 245.0349159 -9.11526066 238.22943201 -9.1036678 231.42376481 C-9.09463814 225.89424161 -9.09340743 220.36476787 -9.09776306 214.83523941 C-9.09837599 214.04858044 -9.09898893 213.26192146 -9.09962043 212.45142434 C-9.10089931 210.85342119 -9.10219617 209.25541805 -9.1035108 207.65741493 C-9.1149184 192.67137821 -9.10179931 177.68543935 -9.08030933 162.69941868 C-9.0624312 149.83358041 -9.06554796 136.96788646 -9.08398438 124.10205078 C-9.10537594 109.16693403 -9.11382708 94.231903 -9.10153532 79.29677308 C-9.1002611 77.70522508 -9.09900361 76.11367708 -9.09776306 74.52212906 C-9.09714596 73.73901882 -9.09652886 72.95590858 -9.09589306 72.14906772 C-9.09243552 66.62352624 -9.09827702 61.09803903 -9.10768127 55.57250595 C-9.11888333 48.84267373 -9.11589894 42.11302819 -9.0945583 35.38321744 C-9.08402454 31.94785445 -9.07996519 28.51280306 -9.09315491 25.07744217 C-9.10401503 21.35843167 -9.09046119 17.64030943 -9.07043457 13.9213562 C-9.07935746 12.82847601 -9.08828034 11.73559582 -9.09747362 10.60959804 C-9.08704263 9.61742405 -9.07661164 8.62525005 -9.06586456 7.60301018 C-9.06521515 6.74413511 -9.06456574 5.88526005 -9.06389666 5.00035846 C-8.5625 2.8125 -8.5625 2.8125 -6.67190886 1.02212632 C-4.11977726 -0.44137638 -2.88287729 -0.41462702 0 0 Z " fill="#8DB3D3" transform="translate(616.5625,364.1875)"/>
<path d="M0 0 C0.99 0.66 1.98 1.32 3 2 C3.37604749 4.07237333 3.37604749 4.07237333 3.37752342 6.68866634 C3.38534666 7.68356608 3.39316991 8.67846582 3.40123022 9.70351404 C3.39453805 10.80456226 3.38784589 11.90561048 3.38095093 13.0400238 C3.3856309 14.20342838 3.39031087 15.36683295 3.39513266 16.56549221 C3.40506156 19.80474439 3.40144326 23.04366208 3.39217401 26.28290617 C3.38541006 29.7724138 3.39585154 33.26187481 3.40411377 36.75137329 C3.41748223 43.59150974 3.41455945 50.43154766 3.40587585 57.27168804 C3.39911135 62.8294039 3.39817722 68.38709207 3.4014473 73.94481087 C3.40213684 75.12957207 3.40213684 75.12957207 3.40284032 76.33826785 C3.40379946 77.9426326 3.4047721 79.54699734 3.4057581 81.15136207 C3.41432125 96.21033342 3.40446367 111.26925007 3.388357 126.32821245 C3.37495557 139.25830512 3.37727866 152.18831699 3.39111328 165.1184082 C3.40715726 180.12051333 3.41349445 195.12257045 3.40427649 210.12468296 C3.40332081 211.72357976 3.4023777 213.32247656 3.4014473 214.92137337 C3.40098447 215.70813268 3.40052164 216.494892 3.40004479 217.3054925 C3.39745116 222.85804081 3.40183398 228.41055874 3.40888596 233.96310234 C3.41728817 240.72774464 3.41504799 247.49228247 3.39904372 254.25691276 C3.39114326 257.71043624 3.38809933 261.16378536 3.39799118 264.61730766 C3.40613597 268.35604565 3.3959703 272.09428661 3.38095093 275.83299255 C3.38764309 276.93181005 3.39433526 278.03062755 3.40123022 279.16274256 C3.39340697 280.16025004 3.38558373 281.15775753 3.37752342 282.18549252 C3.37703637 283.04903156 3.37654931 283.91257061 3.37604749 284.80227751 C2.91641917 287.48846882 2.11307209 288.33531311 0 290 C-3.12860495 291.56430248 -5.55602925 291.35627284 -9 291 C-11.61652231 288.84150281 -12.83746593 287.05282103 -13.35951281 283.67124116 C-13.5069844 280.64595714 -13.51337995 277.64577568 -13.48101807 274.61698914 C-13.48443577 273.45298814 -13.48785347 272.28898715 -13.49137473 271.08971339 C-13.49682323 267.86272351 -13.48432699 264.63637666 -13.46426249 261.40946281 C-13.44698587 257.92826421 -13.45283433 254.4470955 -13.45587158 250.96586609 C-13.45796882 244.93574104 -13.44542069 238.90578913 -13.42292023 232.87570763 C-13.39040964 224.15725621 -13.37999419 215.43888849 -13.37496826 206.72038303 C-13.36621412 192.57517859 -13.33959534 178.43006644 -13.30175781 164.28491211 C-13.26504079 150.54435691 -13.23672752 136.80382678 -13.21972656 123.06323242 C-13.21815022 121.79274273 -13.21815022 121.79274273 -13.21654204 120.49658658 C-13.21132188 116.24746368 -13.20626705 111.99834059 -13.20129442 107.74921739 C-13.15982869 72.49941248 -13.08937704 37.24971475 -13 2 C-8.06650467 -0.69289519 -5.55073509 -1.36150106 0 0 Z " fill="#8DB3D3" transform="translate(469,365)"/>
<path d="M0 0 C2.15180305 3.22770457 2.25117502 4.07595459 2.25726891 7.79330349 C2.2637178 8.78609418 2.27016669 9.77888488 2.276811 10.80176014 C2.2737138 11.89532245 2.2706166 12.98888476 2.26742554 14.11558533 C2.27195665 15.27505521 2.27648776 16.43452509 2.28115618 17.62913042 C2.29164925 20.85271956 2.29312214 24.07616891 2.29076743 27.29976976 C2.29036004 30.77427998 2.30139088 34.24875666 2.31088257 37.72325134 C2.32750994 44.5321439 2.33299288 51.34100184 2.33410732 58.14991301 C2.3350569 63.68280289 2.33916263 69.21568132 2.34550858 74.74856758 C2.36312507 90.42644436 2.37234671 106.10429373 2.37084763 121.78218048 C2.37076772 122.62774012 2.3706878 123.47329976 2.37060547 124.34448242 C2.37052371 125.19107127 2.37044195 126.03766012 2.37035771 126.90990318 C2.3695445 140.63549299 2.38868978 154.36097313 2.4168822 168.08653121 C2.44558446 182.17112791 2.45942399 196.25567107 2.45769465 210.34029776 C2.45702987 218.25129009 2.46256076 226.16216743 2.48405075 234.07313347 C2.50222757 240.80772499 2.50663881 247.54214941 2.4930319 254.27675479 C2.48648462 257.71426551 2.48644772 261.15145531 2.5037384 264.58893585 C2.51907142 268.31205824 2.50996105 272.03432827 2.49447632 275.75743103 C2.50476344 276.84876262 2.51505057 277.94009421 2.52564943 279.06449646 C2.45860313 286.32050265 2.45860313 286.32050265 0.19175148 289.67922306 C-2.98624163 291.59432158 -5.3659248 291.39644457 -9 291 C-12 289 -12 289 -13 286 C-13.09472995 284.40345673 -13.13267988 282.80324849 -13.13701439 281.2039032 C-13.14208893 280.21049581 -13.14716347 279.21708841 -13.15239179 278.19357777 C-13.15288955 277.09933333 -13.15338731 276.0050889 -13.15390015 274.87768555 C-13.1582824 273.7175101 -13.16266465 272.55733465 -13.1671797 271.36200237 C-13.1782482 268.13652106 -13.18479329 264.91106714 -13.18936086 261.68557119 C-13.19531709 258.20904147 -13.20692654 254.73252963 -13.21765137 251.25601196 C-13.24216954 242.85970709 -13.2567989 234.46339631 -13.26971143 226.06706667 C-13.27342291 223.69681923 -13.27739615 221.32657238 -13.2814641 218.95632553 C-13.3066932 204.24490186 -13.32875133 189.53347727 -13.34119225 174.82203674 C-13.34412203 171.41488644 -13.34708369 168.00773617 -13.35009766 164.60058594 C-13.35084371 163.75373478 -13.35158976 162.90688362 -13.35235842 162.0343703 C-13.36502474 148.30162236 -13.39826589 134.56900352 -13.43989949 120.83631599 C-13.48226812 106.74608102 -13.50588113 92.65591227 -13.51111281 78.56561375 C-13.51453202 70.6506998 -13.52634738 62.73598786 -13.55921555 54.82113647 C-13.58714728 48.08394226 -13.59824572 41.34699147 -13.58702008 34.60974383 C-13.58181619 31.17025421 -13.58483072 27.7312749 -13.60948563 24.29185867 C-13.63196959 20.56824385 -13.62397776 16.845933 -13.60800171 13.12231445 C-13.6218838 12.02807002 -13.63576588 10.93382559 -13.65006864 9.80642223 C-13.62135669 7.10846308 -13.56690433 4.63744487 -13 2 C-8.66139144 -1.94386708 -5.39286806 -1.23770742 0 0 Z " fill="#8BB1D1" transform="translate(571,365)"/>
<path d="M0 0 C4.23981748 4.54758504 3.4139827 10.45723341 3.3742218 16.28016663 C3.37819621 17.43317825 3.38217061 18.58618988 3.38626546 19.77414125 C3.39422419 22.97048908 3.3887266 26.1664873 3.37751496 29.36281502 C3.36867185 32.81138261 3.37711674 36.25991362 3.38337708 39.70848083 C3.39286619 46.46232093 3.38626443 53.2160542 3.37411413 59.96988637 C3.36049528 67.83278582 3.36213187 75.69565981 3.36424746 83.55856805 C3.36743746 97.58602369 3.35576863 111.61342856 3.33618164 125.64086914 C3.3171738 139.25709581 3.31009503 152.87326297 3.31567383 166.48950195 C3.32172925 181.3129122 3.32155917 196.13629627 3.310188 210.95970434 C3.30898069 212.53975546 3.3077747 214.11980659 3.30657005 215.69985771 C3.30566475 216.86601967 3.30566475 216.86601967 3.30474115 218.05574046 C3.30085925 223.53871526 3.30125666 229.02168033 3.3031559 234.50465584 C3.30527623 241.18427338 3.300066 247.86383876 3.28554235 254.5434416 C3.27829028 257.95251866 3.27422824 261.36151968 3.27878571 264.77060318 C3.28199267 268.46275946 3.27296304 272.15468452 3.26069641 275.84681702 C3.26447573 276.92900247 3.26825506 278.01118793 3.27214891 279.12616688 C3.26631671 280.11336513 3.26048452 281.10056338 3.25447559 282.11767673 C3.25360882 282.97009656 3.25274204 283.82251638 3.251849 284.7007671 C2.97374332 287.23970804 2.3590657 288.84656856 1 291 C-2.09173752 292.54586876 -4.59429552 292.29359521 -8 292 C-10.19565773 290.68312931 -10.19565773 290.68312931 -12 288 C-12.60670486 284.25774382 -12.53014151 280.54104808 -12.49447632 276.75743103 C-12.49930515 275.59640116 -12.50413398 274.43537129 -12.50910914 273.23915869 C-12.51844103 270.0157188 -12.5097944 266.79290006 -12.49358058 263.56950557 C-12.48043228 260.09366865 -12.49032222 256.61788811 -12.49734497 253.14204407 C-12.50743285 246.33288831 -12.49614125 239.52392668 -12.47764437 232.71479505 C-12.45688803 224.78940902 -12.45701643 216.86406509 -12.45798953 208.93865699 C-12.45899103 194.80077913 -12.44066036 180.66299171 -12.41162109 166.52514648 C-12.38344039 152.7982417 -12.36927976 139.07141653 -12.37060547 125.34448242 C-12.37068538 124.49892278 -12.37076529 123.65336314 -12.37084763 122.78218048 C-12.37092834 121.93809986 -12.37100905 121.09401923 -12.3710922 120.22436041 C-12.37247106 104.60776276 -12.36069721 88.99119901 -12.34278577 73.37461234 C-12.33674718 67.84659754 -12.33462596 62.31858895 -12.33372116 56.79057121 C-12.3323584 50.05709722 -12.3234501 43.32368037 -12.30505554 36.59023064 C-12.29580705 33.15293393 -12.28973315 29.71571042 -12.29224396 26.27840042 C-12.29322001 22.55737153 -12.28196688 18.83658111 -12.26742554 15.11558533 C-12.27052274 14.02202301 -12.27361995 12.9284607 -12.276811 11.80176014 C-12.27036211 10.80896944 -12.26391322 9.81617875 -12.25726891 8.79330349 C-12.25515563 7.50417778 -12.25515563 7.50417778 -12.25299966 6.18900913 C-12 4 -12 4 -10 1 C-6.39076038 -0.20307987 -3.78613423 -0.40565724 0 0 Z " fill="#8BB1D1" transform="translate(519,364)"/>
<path d="M0 0 C1.31734383 -0.0098568 1.31734383 -0.0098568 2.66130066 -0.01991272 C5.57595907 -0.03966892 8.49056588 -0.05131402 11.40527344 -0.0612793 C12.39991356 -0.06535482 13.39455368 -0.06943035 14.41933441 -0.07362938 C19.68466485 -0.0945009 24.94996915 -0.10879744 30.21533203 -0.11816406 C35.65397426 -0.12922543 41.09220699 -0.16361923 46.5307045 -0.20333576 C50.71204386 -0.22948434 54.89328546 -0.23785439 59.0746994 -0.24144554 C61.07935092 -0.24631674 63.08399792 -0.25794585 65.08856964 -0.27648354 C67.89661554 -0.30083538 70.70359955 -0.29991705 73.51171875 -0.29296875 C74.33792221 -0.30577881 75.16412567 -0.31858887 76.0153656 -0.33178711 C82.12513027 -0.27676431 85.61790202 1.48667452 90.15917969 5.7043457 C96.39859808 13.23755654 94.51464844 20.04836828 94.51464844 30.17700195 C56.56464844 30.17700195 18.61464844 30.17700195 -20.48535156 30.17700195 C-20.48535156 10.20571009 -20.48535156 10.20571009 -14.85253906 4.5324707 C-9.60019607 0.4213436 -6.54886964 0.02110664 0 0 Z " fill="#A1C9ED" transform="translate(503.4853515625,169.822998046875)"/>
<path d="M0 0 C2.453125 0.98828125 2.453125 0.98828125 3.78125 3.1328125 C4.23757813 4.45345703 4.23757813 4.45345703 4.703125 5.80078125 C5.01765625 6.67347656 5.3321875 7.54617188 5.65625 8.4453125 C6.33646469 10.61599761 6.9369057 12.77370047 7.453125 14.98828125 C7.73027344 14.06144531 8.00742187 13.13460938 8.29296875 12.1796875 C8.65519531 10.98214844 9.01742187 9.78460938 9.390625 8.55078125 C9.75027344 7.35582031 10.10992188 6.16085937 10.48046875 4.9296875 C11.453125 1.98828125 11.453125 1.98828125 12.453125 0.98828125 C14.890625 0.80078125 14.890625 0.80078125 17.453125 0.98828125 C18.113125 1.64828125 18.773125 2.30828125 19.453125 2.98828125 C19.08952023 8.62858935 16.886167 13.95047616 15.015625 19.23828125 C14.70302734 20.14835937 14.39042969 21.0584375 14.06835938 21.99609375 C13.61106445 23.29933594 13.61106445 23.29933594 13.14453125 24.62890625 C12.86810791 25.41813477 12.59168457 26.20736328 12.30688477 27.02050781 C11.453125 28.98828125 11.453125 28.98828125 9.453125 30.98828125 C6.828125 31.11328125 6.828125 31.11328125 4.453125 30.98828125 C3.80177575 29.42807258 3.15729536 27.86499546 2.515625 26.30078125 C2.15597656 25.43066406 1.79632812 24.56054688 1.42578125 23.6640625 C0.4960938 21.1064886 -0.08850125 18.66614895 -0.546875 15.98828125 C-0.98 17.16390625 -1.413125 18.33953125 -1.859375 19.55078125 C-3.30722945 23.41862099 -4.89166817 27.20495134 -6.546875 30.98828125 C-8.859375 31.30078125 -8.859375 31.30078125 -11.546875 30.98828125 C-14.76168036 26.66975525 -16.43445431 21.49305784 -18.296875 16.48828125 C-18.62558594 15.64652344 -18.95429687 14.80476563 -19.29296875 13.9375 C-22.18275385 6.19482685 -22.18275385 6.19482685 -20.546875 1.98828125 C-19.546875 0.98828125 -19.546875 0.98828125 -16.984375 0.92578125 C-15.7778125 0.95671875 -15.7778125 0.95671875 -14.546875 0.98828125 C-14.28132812 1.60316406 -14.01578125 2.21804688 -13.7421875 2.8515625 C-13.38898437 3.65980469 -13.03578125 4.46804688 -12.671875 5.30078125 C-12.14980469 6.50154297 -12.14980469 6.50154297 -11.6171875 7.7265625 C-10.52115606 10.18446465 -10.52115606 10.18446465 -8.546875 12.98828125 C-8.36511719 12.30121094 -8.18335938 11.61414063 -7.99609375 10.90625 C-7.74472656 10.00519531 -7.49335937 9.10414063 -7.234375 8.17578125 C-6.99074219 7.28246094 -6.74710938 6.38914062 -6.49609375 5.46875 C-5.08012445 1.76858331 -4.14709257 -0.01908171 0 0 Z " fill="#FBFCFD" transform="translate(806.546875,258.01171875)"/>
<path d="M0 0 C4.55555556 0.55555556 4.55555556 0.55555556 6 2 C6.14193337 5.00331018 6.04236378 7.99217134 6 11 C9.63 11 13.26 11 17 11 C17 7.7 17 4.4 17 1 C21.75 -0.125 21.75 -0.125 24 1 C24.0578304 5.45827926 24.09353855 9.9164628 24.125 14.375 C24.14175781 15.64601563 24.15851562 16.91703125 24.17578125 18.2265625 C24.18222656 19.43828125 24.18867187 20.65 24.1953125 21.8984375 C24.20578613 23.01911621 24.21625977 24.13979492 24.22705078 25.29443359 C24 28 24 28 22 30 C17.44444444 29.44444444 17.44444444 29.44444444 16 28 C15.85742811 24.66381769 15.95771843 21.34024394 16 18 C12.7 18 9.4 18 6 18 C6.04125 19.60875 6.0825 21.2175 6.125 22.875 C6.1953125 25.6171875 6.1953125 25.6171875 6 28 C5.34 28.66 4.68 29.32 4 30 C-0.55555556 29.44444444 -0.55555556 29.44444444 -2 28 C-2.25342236 23.69352364 -2.18522638 19.37554946 -2.1875 15.0625 C-2.20586914 13.23428711 -2.20586914 13.23428711 -2.22460938 11.36914062 C-2.22654297 10.20705078 -2.22847656 9.04496094 -2.23046875 7.84765625 C-2.23457764 6.77523682 -2.23868652 5.70281738 -2.24291992 4.59790039 C-2 2 -2 2 0 0 Z " fill="#FBFCFD" transform="translate(728,259)"/>
<path d="M0 0 C2.5625 0.375 2.5625 0.375 4.0949707 2.11157227 C6.56904154 5.92742832 8.07729696 10.09898221 9.75 14.3125 C10.11802734 15.20646484 10.48605469 16.10042969 10.86523438 17.02148438 C11.21263672 17.88966797 11.56003906 18.75785156 11.91796875 19.65234375 C12.39206177 20.83171509 12.39206177 20.83171509 12.87573242 22.03491211 C13.63951689 24.63742691 13.82626598 26.67712355 13.5625 29.375 C12.9025 30.035 12.2425 30.695 11.5625 31.375 C8.9375 31 8.9375 31 6.5625 30.375 C6.0675 27.9 6.0675 27.9 5.5625 25.375 C1.9325 25.375 -1.6975 25.375 -5.4375 25.375 C-6.4275 27.85 -6.4275 27.85 -7.4375 30.375 C-10 31.25 -10 31.25 -12.4375 31.375 C-12.7675 31.045 -13.0975 30.715 -13.4375 30.375 C-13.0962655 23.34835492 -11.33375357 17.83225362 -8.5 11.4375 C-8.13970703 10.58865234 -7.77941406 9.73980469 -7.40820312 8.86523438 C-3.83335023 0.58974619 -3.83335023 0.58974619 0 0 Z " fill="#FAFCFD" transform="translate(841.4375,258.625)"/>
<path d="M0 0 C3.16736834 0.30165413 3.63768103 0.85925031 5.625 3.25 C7.26197966 6.3953209 8.50400589 9.70628608 9.8125 13 C10.18052734 13.88171875 10.54855469 14.7634375 10.92773438 15.671875 C12.97669365 20.78096825 14.08381994 24.74416074 13.625 30.25 C11.975 30.58 10.325 30.91 8.625 31.25 C8.356875 30.445625 8.08875 29.64125 7.8125 28.8125 C5.0973971 25.63195089 3.99689945 25.78187065 -0.0625 25.4375 C-1.83239906 25.35256321 -3.603373 25.28308641 -5.375 25.25 C-5.705 26.9 -6.035 28.55 -6.375 30.25 C-8.75 30.875 -8.75 30.875 -11.375 31.25 C-12.035 30.59 -12.695 29.93 -13.375 29.25 C-13.16807775 22.74919267 -10.48058194 17.24764289 -7.875 11.375 C-7.45863281 10.41335938 -7.04226563 9.45171875 -6.61328125 8.4609375 C-3.06121983 0.32223367 -3.06121983 0.32223367 0 0 Z " fill="#FAFCFD" transform="translate(769.375,258.75)"/>
<path d="M0 0 C14.52 0 29.04 0 44 0 C44 3.3 44 6.6 44 10 C29.48 10 14.96 10 0 10 C0 6.7 0 3.4 0 0 Z " fill="#A0C8EC" transform="translate(594,732)"/>
<path d="M0 0 C14.52 0 29.04 0 44 0 C44 3.3 44 6.6 44 10 C29.48 10 14.96 10 0 10 C0 6.7 0 3.4 0 0 Z " fill="#A0C8EC" transform="translate(442,732)"/>
<path d="M0 0 C4.55555556 0.55555556 4.55555556 0.55555556 6 2 C6.25342236 6.30647636 6.18522638 10.62445054 6.1875 14.9375 C6.19974609 16.15630859 6.21199219 17.37511719 6.22460938 18.63085938 C6.22750977 20.37399414 6.22750977 20.37399414 6.23046875 22.15234375 C6.23457764 23.22476318 6.23868652 24.29718262 6.24291992 25.40209961 C6 28 6 28 4 30 C-0.55555556 29.44444444 -0.55555556 29.44444444 -2 28 C-2.25342236 23.69352364 -2.18522638 19.37554946 -2.1875 15.0625 C-2.20586914 13.23428711 -2.20586914 13.23428711 -2.22460938 11.36914062 C-2.22654297 10.20705078 -2.22847656 9.04496094 -2.23046875 7.84765625 C-2.23457764 6.77523682 -2.23868652 5.70281738 -2.24291992 4.59790039 C-2 2 -2 2 0 0 Z " fill="#FAFBFD" transform="translate(875,259)"/>
<path d="M0 0 C4.55555556 0.55555556 4.55555556 0.55555556 6 2 C6.25342236 6.30647636 6.18522638 10.62445054 6.1875 14.9375 C6.19974609 16.15630859 6.21199219 17.37511719 6.22460938 18.63085938 C6.22750977 20.37399414 6.22750977 20.37399414 6.23046875 22.15234375 C6.23457764 23.22476318 6.23868652 24.29718262 6.24291992 25.40209961 C6 28 6 28 4 30 C-0.55555556 29.44444444 -0.55555556 29.44444444 -2 28 C-2.25342236 23.69352364 -2.18522638 19.37554946 -2.1875 15.0625 C-2.20586914 13.23428711 -2.20586914 13.23428711 -2.22460938 11.36914062 C-2.22654297 10.20705078 -2.22847656 9.04496094 -2.23046875 7.84765625 C-2.23457764 6.77523682 -2.23868652 5.70281738 -2.24291992 4.59790039 C-2 2 -2 2 0 0 Z " fill="#FBFCFD" transform="translate(861,259)"/>
<path d="M0 0 C2.31 0 4.62 0 7 0 C8.26264601 4.29299643 7.62950412 6.87831311 6 11 C6.66 11 7.32 11 8 11 C7.50269348 15.97306516 6.44697666 19.63799813 4 24 C5.98 23.34 7.96 22.68 10 22 C8.63016497 25.16115776 8.0109362 25.9927092 5 28 C2.3125 27.625 2.3125 27.625 0 27 C0.46588495 21.29290936 1.93757784 17.84060277 5 13 C4.01 12.67 3.02 12.34 2 12 C2.48578543 8.87709365 2.9986012 6.00419641 4 3 C2.35 3 0.7 3 -1 3 C-0.67 2.01 -0.34 1.02 0 0 Z " fill="#F4F7FA" transform="translate(829,222)"/>
<path d="M0 0 C0.66 0 1.32 0 2 0 C1.22095672 11.52164009 1.22095672 11.52164009 -1 17 C-0.01 16.67 0.98 16.34 2 16 C4.33299825 15.96045766 6.66708189 15.95598268 9 16 C9 16.66 9 17.32 9 18 C5.7 18.66 2.4 19.32 -1 20 C-1 21.32 -1 22.64 -1 24 C-2.32 24 -3.64 24 -5 24 C-5.45978362 18.36765064 -4.5291078 13.49655255 -3.0625 8.0625 C-2.88041992 7.38759521 -2.69833984 6.71269043 -2.51074219 6.01733398 C-1.14503653 1.14503653 -1.14503653 1.14503653 0 0 Z " fill="#F1F6F9" transform="translate(788,223)"/>
<path d="M0 0 C0.99 0 1.98 0 3 0 C2.67 3.96 2.34 7.92 2 12 C2.66 11.67 3.32 11.34 4 11 C5.99960012 10.960008 8.00047242 10.95653201 10 11 C10 11.66 10 12.32 10 13 C8.865625 13.350625 7.73125 13.70125 6.5625 14.0625 C4.60694436 14.79385681 4.60694436 14.79385681 3 16 C1.9384058 19.58863524 1.9384058 19.58863524 2 23 C1.01 23 0.02 23 -1 23 C-2.55647905 19.8870419 -2.18446048 16.60088167 -2.1875 13.1875 C-2.19974609 12.47529297 -2.21199219 11.76308594 -2.22460938 11.02929688 C-2.23607389 6.8982511 -1.84522492 3.71232998 0 0 Z " fill="#F6F9FB" transform="translate(846,224)"/>
<path d="M0 0 C0.66 0 1.32 0 2 0 C1.48517081 5.852795 0.54642808 11.3297637 -1 17 C2.3 16.67 5.6 16.34 9 16 C9 16.66 9 17.32 9 18 C8.28972656 18.18175781 7.57945312 18.36351562 6.84765625 18.55078125 C5.92855469 18.80214844 5.00945313 19.05351562 4.0625 19.3125 C3.14597656 19.55613281 2.22945312 19.79976562 1.28515625 20.05078125 C0.53105469 20.36402344 -0.22304688 20.67726562 -1 21 C-1.33 21.99 -1.66 22.98 -2 24 C-2.99 24 -3.98 24 -5 24 C-5.45978362 18.36765064 -4.5291078 13.49655255 -3.0625 8.0625 C-2.88041992 7.38759521 -2.69833984 6.71269043 -2.51074219 6.01733398 C-1.14503653 1.14503653 -1.14503653 1.14503653 0 0 Z " fill="#F2F6F9" transform="translate(818,223)"/>
<path d="M0 0 C0.99 0 1.98 0 3 0 C2.67 3.3 2.34 6.6 2 10 C2.7425 9.67 3.485 9.34 4.25 9 C7 8 7 8 11 8 C9.98059612 10.7801924 9.30279713 11.82814217 6.6875 13.3125 C3.7076274 14.07479299 1.9290363 13.83686751 -1 13 C-1.0272415 11.58344207 -1.04650467 10.16672955 -1.0625 8.75 C-1.07410156 7.96109375 -1.08570313 7.1721875 -1.09765625 6.359375 C-1.00385306 4.09308998 -0.63241063 2.1711105 0 0 Z " fill="#F6F9FB" transform="translate(745,229)"/>
<path d="M0 0 C0.99 0 1.98 0 3 0 C2.69224454 3.08382614 2.3779641 6.16695365 2.0625 9.25 C1.97548828 10.12269531 1.88847656 10.99539062 1.79882812 11.89453125 C1.71181641 12.73886719 1.62480469 13.58320313 1.53515625 14.453125 C1.456604 15.22817383 1.37805176 16.00322266 1.29711914 16.80175781 C1.00997086 18.92623038 0.56205228 20.93296525 0 23 C-0.66 23 -1.32 23 -2 23 C-2.05429278 20.29139335 -2.09381211 17.58389099 -2.125 14.875 C-2.14175781 14.11445313 -2.15851562 13.35390625 -2.17578125 12.5703125 C-2.21546246 7.96729269 -1.75907577 4.33535996 0 0 Z " fill="#F1F6F9" transform="translate(762,225)"/>
<path d="M0 0 C1.22589844 0.01353516 1.22589844 0.01353516 2.4765625 0.02734375 C3.41628906 0.04474609 3.41628906 0.04474609 4.375 0.0625 C4.25990339 1.48000563 4.13246342 2.89651169 4 4.3125 C3.93039062 5.10140625 3.86078125 5.8903125 3.7890625 6.703125 C3.35992887 9.148377 2.58899362 10.91086903 1.375 13.0625 C0.715 13.0625 0.055 13.0625 -0.625 13.0625 C-0.80442163 9.11522412 -0.71850689 6.4644487 1.375 3.0625 C-0.935 3.3925 -3.245 3.7225 -5.625 4.0625 C-5.955 3.0725 -6.285 2.0825 -6.625 1.0625 C-4.21954362 -0.14022819 -2.67503047 -0.03821472 0 0 Z " fill="#F3F6FA" transform="translate(803.625,229.9375)"/>
<path d="M0 0 C2.97 0 5.94 0 9 0 C8.19642857 9.10714286 8.19642857 9.10714286 6 13 C5.34 13 4.68 13 4 13 C4.875 5.25 4.875 5.25 6 3 C3.69 3.33 1.38 3.66 -1 4 C-0.67 2.68 -0.34 1.36 0 0 Z " fill="#F5F8FB" transform="translate(769,230)"/>
<path d="M0 0 C0.33 0.66 0.66 1.32 1 2 C4.3 1.67 7.6 1.34 11 1 C11 1.66 11 2.32 11 3 C10.28972656 3.18175781 9.57945312 3.36351562 8.84765625 3.55078125 C7.92855469 3.80214844 7.00945313 4.05351562 6.0625 4.3125 C5.14597656 4.55613281 4.22945312 4.79976562 3.28515625 5.05078125 C2.53105469 5.36402344 1.77695312 5.67726562 1 6 C0.67 6.99 0.34 7.98 0 9 C-0.99 9 -1.98 9 -3 9 C-2.25 2.25 -2.25 2.25 0 0 Z " fill="#FAFBFD" transform="translate(816,238)"/>
<path d="M0 0 C0.99 0 1.98 0 3 0 C2.625 2.9375 2.625 2.9375 2 6 C1.01 6.495 1.01 6.495 0 7 C-0.47001033 10.27555608 -0.47001033 10.27555608 -0.625 14.0625 C-0.69976563 15.35285156 -0.77453125 16.64320313 -0.8515625 17.97265625 C-0.90054688 18.97167969 -0.94953125 19.97070312 -1 21 C-1.33 21 -1.66 21 -2 21 C-2.05420701 18.43721301 -2.09377007 15.87558517 -2.125 13.3125 C-2.15013672 12.2306543 -2.15013672 12.2306543 -2.17578125 11.12695312 C-2.21391569 6.95123219 -1.8789919 3.7505862 0 0 Z " fill="#E1EBF3" transform="translate(846,224)"/>
<path d="M0 0 C2.35953094 2.35953094 2.49141413 3.77895617 3 7 C1.35 7 -0.3 7 -2 7 C-1.125 1.125 -1.125 1.125 0 0 Z " fill="#9CBCD7" transform="translate(841,270)"/>
<path d="M0 0 C0.66 0.33 1.32 0.66 2 1 C2.625 4.0625 2.625 4.0625 3 7 C1.35 7 -0.3 7 -2 7 C-1.34 4.69 -0.68 2.38 0 0 Z " fill="#96B8D5" transform="translate(769,270)"/>
</svg>
